<svg width="61" height="56" viewBox="0 0 61 56" fill="none" xmlns="http://www.w3.org/2000/svg">
<rect opacity="0.3" width="48" height="48" rx="16" fill="#5FBB46"/>
<path d="M11.5284 26.1799C11.5284 26.4947 11.5284 26.8195 11.5284 27.1423C11.5284 34.7457 11.5483 42.349 11.5085 49.9524C11.5026 51.2236 11.9223 52.16 12.9867 52.7717C14.0908 53.4074 15.2407 53.9672 16.6273 54.6945C16.6273 53.5548 16.6233 52.712 16.6273 51.8711C16.6293 51.373 16.5597 50.853 16.685 50.3867C16.7586 50.1118 17.1525 49.7471 17.4012 49.7471C17.6499 49.7471 18.1034 50.1436 18.1134 50.3808C18.1691 51.7695 18.2228 53.1742 18.0756 54.553C17.9602 55.627 16.8481 56.2347 15.7977 55.7983C14.433 55.2325 13.0921 54.559 11.8527 53.758C10.5556 52.9212 10.0006 51.6599 10.0105 50.0281C10.0642 41.5281 10.0841 33.0281 10.0006 24.5301C9.98067 22.444 10.48 20.8102 12.4097 19.7342C11.4787 18.7778 11.0231 17.7138 11.2599 16.4506C11.608 14.5776 13.5815 13.4061 15.4317 14.0277C16.0325 14.229 16.3309 14.1393 16.7566 13.6711C19.0544 11.1366 23.1784 11.5311 24.764 14.5418C25.3927 15.7373 26.2561 15.7532 27.2428 15.7154C29.4272 15.6357 31.6076 15.4822 33.79 15.3607C34.3371 15.3308 34.9657 15.3069 34.9876 16.0441C35.0115 16.8551 34.339 16.7933 33.7661 16.8152C32.2163 16.877 30.6666 16.9587 29.0253 17.0384C29.3556 17.9091 29.6082 18.5846 30.6745 18.7699C32.093 19.0169 33.0022 20.2124 33.1096 21.5574C33.223 22.972 32.5287 24.2034 31.2813 24.8071C29.9663 25.4427 28.6533 25.1877 27.5273 24.1675C27.2667 23.9304 26.8111 23.7591 26.4649 23.7889C24.943 23.9224 23.6698 23.5259 22.6035 22.3902C22.3727 22.1451 21.8575 21.9837 21.5232 22.0475C19.5856 22.4201 17.99 21.8363 16.687 20.4157C16.3428 20.0411 16.0961 20.0172 15.6008 20.1327C14.4648 20.3977 13.3826 20.6866 12.4834 21.4956C11.2817 22.5795 11.1544 23.7072 12.4575 24.6497C13.6989 25.5463 15.1293 26.2038 16.5338 26.8434C17.8209 27.4292 18.1691 27.7998 18.1711 29.2225C18.1751 31.7669 18.1711 34.3133 18.1711 37.0171C18.8137 36.7322 19.317 36.509 19.6413 36.3636C19.7646 34.7795 19.6791 33.2652 20.0352 31.8625C20.6061 29.609 22.0305 27.9951 24.4218 27.4671C26.0352 27.1104 27.396 27.7201 28.6394 28.6566C32.1626 25.7356 34.9955 26.2038 37.5082 29.9976C37.7569 30.3721 38.5745 30.3701 39.0679 30.5236C39.2847 28.5171 39.4737 26.7598 39.6806 24.847C38.865 24.4006 38.107 23.5997 37.908 22.4081C37.6335 20.7604 38.6043 19.1444 40.2695 18.7838C41.2702 18.5666 41.6641 17.9988 41.9565 17.0603C40.5957 16.9786 39.2827 16.9467 37.9856 16.7953C37.6275 16.7534 37.0645 16.3848 37.0287 16.1059C36.9432 15.4663 37.4923 15.3448 38.0473 15.3786C39.8975 15.4922 41.7496 15.6118 43.6017 15.6994C44.6681 15.7492 45.5792 15.7552 46.2516 14.5039C47.8651 11.5092 51.9672 11.1665 54.2809 13.695C54.5714 14.0118 54.7365 14.3166 55.3254 14.1094C56.9626 13.5316 58.4149 14.0277 59.2465 15.3129C60.1059 16.6419 59.9667 18.0526 58.8406 19.4234C58.777 19.4991 58.7253 19.5848 58.6198 19.7342C60.5456 20.8301 61.023 22.5317 60.9992 24.6796C60.9057 33.1118 60.9236 41.546 60.9912 49.9783C61.0051 51.7894 60.2889 53.0706 58.8745 53.9772C57.7962 54.6686 56.6225 55.2365 55.4348 55.7186C53.9646 56.3164 52.8605 55.5134 52.8306 53.9174C52.8068 52.6901 52.8247 51.4607 52.8247 50.2313C52.8247 49.0378 52.8247 47.8443 52.8247 46.4795C51.4599 46.1686 50.1031 45.7801 48.7225 45.5549C39.1196 43.9888 29.5366 43.9789 19.9974 46.063C19.1976 46.2384 18.1572 46.1108 17.99 47.3601C17.9721 47.5016 17.5504 47.7128 17.3574 47.6769C17.1127 47.6311 16.8103 47.408 16.7128 47.1828C16.5895 46.8979 16.6293 46.5333 16.6293 46.2045C16.6253 40.6275 16.6114 35.0485 16.6452 29.4715C16.6492 28.7124 16.4005 28.4036 15.7062 28.1286C14.3335 27.5846 13.0225 26.8893 11.5284 26.1819V26.1799ZM55.8048 26.5545C55.0448 25.355 54.4679 24.4863 53.9348 23.5917C52.7232 21.5514 50.6124 22.3185 48.8657 21.9678C48.7125 21.9379 48.5017 22.3085 48.2868 22.448C47.6303 22.8764 46.9599 23.6256 46.2934 23.6276C44.6681 23.6315 43.2894 24.0998 42.0062 25.0064C41.7516 25.1857 41.3637 25.3849 41.3219 25.626C41.0851 26.9789 40.9001 28.3438 40.7688 29.7106C40.7131 30.2845 41.0553 30.5236 41.6859 30.5774C42.7344 30.667 43.7808 30.8802 44.8034 31.1392C45.056 31.203 45.2132 31.6414 45.4121 31.9084C45.1197 32.1176 44.8491 32.3686 44.5288 32.52C44.3856 32.5878 44.1488 32.4623 43.9539 32.4264C42.046 32.0618 40.1342 31.7629 38.1746 32.004C38.668 36.1663 37.1163 38.8442 33.4518 40.233V42.9328C39.985 42.9029 46.4148 43.2795 52.8227 44.9393V43.8713C52.8227 41.4145 52.7968 38.9558 52.8386 36.4991C52.8505 35.8077 52.6695 35.4092 51.9971 35.1601C50.6642 34.668 49.3631 34.0901 48.0381 33.5781C47.5249 33.3788 47.0176 33.0939 47.3299 32.536C47.4811 32.267 48.1834 32.0996 48.5494 32.2012C49.5302 32.4742 50.4652 32.9185 51.4181 33.2931C51.8558 33.4645 52.2935 33.6339 52.8227 33.8411C52.8227 32.6874 52.8804 31.6892 52.8107 30.7009C52.6655 28.6546 52.769 26.8056 55.8028 26.5585L55.8048 26.5545ZM54.3704 54.6865C55.7431 53.9712 56.895 53.4213 57.9971 52.7837C59.0535 52.174 59.4972 51.2475 59.4892 49.9703C59.4474 42.3689 59.4693 34.7676 59.4673 27.1662C59.4673 26.8275 59.4375 26.4868 59.4235 26.1979C57.9932 26.8773 56.6901 27.5946 55.3114 28.1127C54.5375 28.4036 54.3525 28.7742 54.3545 29.5453C54.3824 37.4774 54.3704 45.4115 54.3704 53.3456C54.3704 53.6743 54.3704 54.0011 54.3704 54.6865ZM12.3918 17.148C12.9111 17.7597 13.2354 18.4849 13.7427 18.6503C14.2977 18.8316 15.1173 18.6603 15.6485 18.3474C16.2851 17.9729 16.7069 17.6899 17.1843 18.469C18.4834 20.587 19.7507 21.0513 22.0823 20.2503C22.691 20.0411 23.0531 20.1885 23.3714 20.7623C24.207 22.2727 25.2614 22.6373 26.9364 22.0216C27.5392 21.8004 27.8834 21.912 28.2355 22.4839C28.5081 22.9242 28.9636 23.3586 29.4351 23.5379C30.1255 23.8009 30.9093 23.5977 31.2395 22.9003C31.4822 22.3902 31.5698 21.6749 31.4186 21.1369C31.2196 20.4256 30.5393 20.0331 29.7674 20.1566C28.8264 20.3061 28.4146 20.0172 28.2156 19.0368C27.949 17.7318 26.833 17.0204 25.4523 17.1779C24.5392 17.2815 24.0956 17.0922 23.8528 16.1039C23.5027 14.6773 22.4901 13.7846 20.9881 13.5814C19.4662 13.3742 18.2566 13.9181 17.427 15.2192C16.6452 16.4466 16.7049 16.3769 15.4555 15.7094C14.9542 15.4404 14.1405 15.4105 13.6193 15.6317C13.1418 15.8349 12.8673 16.5203 12.3879 17.146L12.3918 17.148ZM41.4731 20.1626C40.2874 20.1168 39.6368 20.5531 39.428 21.5036C39.241 22.3484 39.7025 23.2291 40.4823 23.5239C41.3617 23.8547 42.2489 23.5299 42.7165 22.5895C43.0865 21.8423 43.5162 21.8084 44.2304 22.1013C45.5673 22.6512 46.8942 22.1989 47.5249 20.9457C47.9367 20.1267 48.3763 20.0351 49.1801 20.3619C50.9467 21.0851 52.7212 20.4097 53.6781 18.744C54.2391 17.7656 54.4639 17.7158 55.3174 18.3853C56.147 19.0349 57.1675 19.001 57.8201 18.3036C58.4448 17.6361 58.4627 16.6439 57.8599 15.9565C57.2193 15.2272 56.2027 15.1614 55.3632 15.7911C54.4202 16.4984 54.2749 16.4606 53.6662 15.4005C52.8764 14.0237 51.6808 13.4021 50.1091 13.5714C48.5594 13.7368 47.5109 14.6334 47.1409 16.1019C46.8942 17.0802 46.4685 17.2874 45.5474 17.1798C44.1051 17.0125 42.987 17.8135 42.7145 19.2221C42.5573 20.0351 42.2032 20.314 41.4771 20.1646L41.4731 20.1626ZM26.0989 39.3144C26.7176 38.9399 27.2289 38.7187 27.6307 38.37C29.9405 36.3735 30.018 32.0717 27.8078 29.9517C26.3396 28.545 24.2786 28.539 22.8124 29.9398C20.5962 32.0578 20.5982 36.2082 22.8522 38.2784C23.2859 38.6769 23.8588 38.9259 24.4716 39.3085C24.5213 38.9438 24.5531 38.8183 24.5531 38.6908C24.5571 36.6326 24.5253 34.5743 24.5909 32.5181C24.6009 32.1853 25.0027 31.6513 25.3031 31.5876C25.9079 31.46 26.0193 32.0159 26.0253 32.5121C26.0332 33.1676 26.0273 33.8231 26.0273 34.2635C26.5883 34.4827 27.1672 34.5384 27.3463 34.8353C27.4815 35.0605 27.2249 35.7559 26.9404 35.9631C25.8104 36.784 25.9875 37.8938 26.1009 39.3125L26.0989 39.3144ZM31.9139 38.7346C31.9139 36.3337 31.9139 34.2455 31.9139 32.1554C31.9139 31.6135 31.8722 30.9938 32.6142 30.9639C33.4657 30.928 33.3662 31.6254 33.3801 32.1793C33.3961 32.7591 33.3841 33.341 33.3841 33.6339C33.9869 33.873 34.5897 33.9407 34.6812 34.1937C34.7926 34.5046 34.5997 35.1262 34.3231 35.3414C33.1872 36.2261 33.2608 37.322 33.5214 38.637C33.963 38.4138 34.3371 38.2784 34.6494 38.0552C37.3251 36.1603 37.4982 31.2967 34.9776 29.1846C33.4896 27.9373 31.4484 28.0051 30.1513 29.4018C29.9603 29.607 29.9146 30.0832 29.9942 30.3821C30.1772 31.0795 30.5333 31.731 30.7203 32.4264C31.2037 34.2236 30.8337 35.9551 30.0936 37.7205C30.6706 38.0412 31.1958 38.3341 31.9139 38.7346ZM18.1771 44.8775C20.3674 44.4391 22.4483 44.0227 24.5074 43.6103V40.761C22.6532 40.3944 21.4357 39.2367 20.4689 37.6427C19.8104 37.9416 19.1777 38.2046 18.571 38.5175C18.3999 38.6051 18.195 38.8422 18.193 39.0136C18.1671 40.9583 18.1771 42.9009 18.1771 44.8775ZM29.3774 39.0873C28.3867 39.6332 27.4398 40.1393 26.5107 40.6773C26.3197 40.7869 26.0691 41.0001 26.0551 41.1794C26.0034 41.9206 26.0332 42.6678 26.0332 43.4429C28.0724 43.2855 29.9623 43.14 31.8602 42.9946V40.3087C30.9173 39.8444 30.0678 39.428 29.3755 39.0893L29.3774 39.0873ZM53.7537 20.9815C54.9275 22.5994 56.0157 24.0958 57.1258 25.626C58.4806 25.0303 59.4812 24.0559 59.4275 23.1494C59.342 21.7486 58.204 21.1608 57.1715 20.6229C56.4693 20.2563 55.6098 20.0271 54.828 20.049C54.4162 20.059 54.0203 20.7345 53.7557 20.9835L53.7537 20.9815Z" fill="#3C483E"/>
<path d="M40.519 39.9372C40.3598 40.1006 40.0853 40.6227 39.8028 40.6286C38.9155 40.6446 38.9513 39.8137 38.9612 39.2498C38.9672 38.933 39.4109 38.3712 39.6735 38.3612C40.519 38.3313 40.4135 39.0825 40.519 39.9392V39.9372Z" fill="#3C483E"/>
<path d="M46.4036 37.7887C46.1091 38.0478 45.8187 38.524 45.5203 38.526C44.5932 38.5359 44.7026 37.6871 44.7066 37.1213C44.7066 36.8284 45.1482 36.2944 45.3989 36.2904C46.2365 36.2744 46.1788 37.0077 46.4036 37.7887Z" fill="#3C483E"/>
<path d="M40.8863 39.817C41.1609 39.0479 41.0694 38.2828 41.9248 38.3585C42.1894 38.3824 42.5773 38.9523 42.5992 39.293C42.635 39.8429 42.6032 40.616 41.8074 40.624C41.5031 40.628 41.1927 40.0999 40.8863 39.815V39.817Z" fill="#3C483E"/>
<path d="M46.6589 37.7635C46.8758 36.9805 46.834 36.2572 47.6775 36.2951C47.9282 36.307 48.3619 36.855 48.3499 37.1459C48.33 37.6998 48.4633 38.5705 47.5164 38.5267C47.2199 38.5127 46.9434 38.0305 46.6569 37.7635H46.6589Z" fill="#3C483E"/>
</svg>
