<svg width="42" height="42" viewBox="0 0 42 42" fill="none" xmlns="http://www.w3.org/2000/svg">
<path d="M3.9375 8.75C3.9375 8.02513 4.52513 7.4375 5.25 7.4375H36.75C37.4749 7.4375 38.0625 8.02513 38.0625 8.75C38.0625 9.47487 37.4749 10.0625 36.75 10.0625H5.25C4.52513 10.0625 3.9375 9.47487 3.9375 8.75Z" fill="white"/>
<path d="M3.9375 21C3.9375 20.2751 4.52513 19.6875 5.25 19.6875H36.75C37.4749 19.6875 38.0625 20.2751 38.0625 21C38.0625 21.7249 37.4749 22.3125 36.75 22.3125H5.25C4.52513 22.3125 3.9375 21.7249 3.9375 21Z" fill="white"/>
<path d="M5.25 31.9375C4.52513 31.9375 3.9375 32.5251 3.9375 33.25C3.9375 33.9749 4.52513 34.5625 5.25 34.5625H36.75C37.4749 34.5625 38.0625 33.9749 38.0625 33.25C38.0625 32.5251 37.4749 31.9375 36.75 31.9375H5.25Z" fill="white"/>
</svg>
