<svg width="196" height="67" viewBox="0 0 196 67" fill="none" xmlns="http://www.w3.org/2000/svg">
<path d="M72.3227 60.7802C72.3227 60.0034 72.5278 59.25 72.938 58.5258C72.9966 58.4265 73.0259 58.3214 73.0259 58.2163C73.0259 58.1462 73.0025 58.0528 72.9615 57.9359C72.9205 57.8191 72.8208 57.7607 72.6626 57.7607C71.8305 57.9243 71.1566 58.0119 70.6468 58.0119C70.2835 58.0119 70.0491 57.9885 69.9437 57.9418C69.8382 57.8951 69.7034 57.8659 69.551 57.86C69.3225 57.86 69.1467 57.9476 69.0295 58.1287C68.9123 58.3039 68.8537 58.4382 68.8537 58.5258C68.8537 58.6251 68.9006 58.7069 68.9944 58.777C69.053 59.1858 69.0823 59.5888 69.0823 59.9742C69.0823 60.6225 68.9826 61.3292 68.7775 62.1001C68.5783 62.8652 68.2677 63.2506 67.8576 63.2506C67.7755 63.2506 67.6583 63.2331 67.5001 63.1922C67.3419 63.1513 67.1368 62.8944 66.8848 62.4096C66.8321 62.3454 66.7735 62.3103 66.7032 62.3103C66.6328 62.3103 66.5449 62.3512 66.4277 62.433C66.3164 62.5148 66.2578 62.6374 66.2578 62.7892C66.2754 63.1689 66.4512 63.4842 66.7793 63.7412C67.1075 63.9982 67.4239 64.1267 67.7228 64.1267C68.3263 64.1267 68.8361 63.8113 69.2522 63.1747C69.6624 62.5381 69.9144 61.1715 69.9905 59.0748C70.137 59.0923 70.2894 59.0982 70.4593 59.0982C70.805 59.0982 71.1918 59.0631 71.6196 58.9989C71.3969 59.6413 71.2738 60.3538 71.2621 61.1306C71.2621 61.8782 71.4145 62.5673 71.7192 63.1981C72.0239 63.823 72.2817 64.1384 72.4868 64.1384C72.604 64.1384 72.7329 64.08 72.8736 63.9631C73.0201 63.8463 73.0904 63.7237 73.0904 63.5894C73.0904 63.5193 72.9615 63.2389 72.7036 62.76C72.4458 62.2811 72.3169 61.6212 72.3169 60.7919L72.3227 60.7802Z" fill="#117139"/>
<path d="M79.1469 61.4172C78.7132 61.4172 78.221 61.6859 77.6643 62.2232C77.1076 62.7605 76.6799 63.0292 76.3751 63.0292C75.9181 63.0058 75.6895 62.597 75.6837 61.8027C75.6837 61.2771 75.9122 60.6872 76.3693 60.0448C76.8264 59.4023 77.2834 59.0811 77.7405 59.0811C78.1155 59.0811 78.3382 59.4023 78.4144 60.0389C78.432 60.8683 78.5081 61.2771 78.6488 61.2771C78.8714 61.2771 79.059 61.2128 79.2055 61.0843C79.3519 60.9559 79.4281 60.5879 79.4281 59.9747C79.4281 59.4257 79.3109 58.9935 79.0707 58.6781C78.8304 58.3628 78.4964 58.2051 78.0628 58.2051C76.9377 58.2051 76.0646 58.6373 75.4493 59.4958C74.834 60.3543 74.5117 61.1544 74.4883 61.8962C74.4883 62.5152 74.6348 63.0525 74.9219 63.5081C75.209 63.9578 75.5899 64.1856 76.0587 64.1856C76.756 64.1856 77.4006 63.8877 77.9925 63.2861C78.5843 62.6846 78.9593 62.3867 79.1234 62.3867C79.4223 62.3867 79.7153 62.5736 79.9965 62.9532C80.2778 63.3329 80.477 63.5198 80.5825 63.5198C80.6411 63.5198 80.6763 63.4964 80.6939 63.4555C80.7114 63.4088 80.7173 63.3679 80.7173 63.3329C80.7173 63.1109 80.5708 62.743 80.2837 62.2232C79.9965 61.7034 79.6156 61.4348 79.141 61.4114L79.1469 61.4172Z" fill="#117139"/>
<path d="M87.479 60.5407C87.3969 60.529 87.3383 60.5231 87.3032 60.5173C87.3032 60.2253 87.3149 59.9625 87.3383 59.7405C87.3618 59.5128 87.3735 59.3492 87.3735 59.2383C87.3735 58.6134 87.3266 58.2045 87.2328 58.0176C87.1391 57.8307 87.0453 57.7373 86.9574 57.7373C86.8988 57.7373 86.8461 57.7665 86.7934 57.8249C86.7406 57.8833 86.7172 57.9417 86.7172 58.006C86.7172 58.0352 86.7172 58.0585 86.723 58.076C86.723 58.0936 86.7289 58.1286 86.7289 58.1695C86.7289 58.3213 86.6879 58.5491 86.6058 58.8586C86.5238 59.1682 86.4535 59.7055 86.4007 60.4764C85.8441 60.4764 85.2874 60.5231 84.7248 60.6049C84.1623 60.6867 83.7169 60.7626 83.3888 60.8443C83.4005 60.6049 83.4064 60.3187 83.4064 59.98C83.4708 58.8236 83.5001 58.1753 83.5001 58.0235C83.4884 57.8658 83.4064 57.7899 83.2599 57.7899C83.2013 57.7899 83.0782 57.8366 82.8907 57.9242C82.7032 58.0118 82.6094 58.1636 82.6036 58.3739C82.6036 58.5841 82.5684 58.8119 82.5098 59.0455C82.4512 59.285 82.4219 59.5478 82.4219 59.834C82.4219 60.1902 82.4219 60.6516 82.4161 61.2181C82.2871 61.2941 82.1699 61.3875 82.0645 61.4985C81.959 61.6094 81.9062 61.7087 81.9062 61.7905C81.9062 61.8898 81.9766 61.9482 82.1113 61.9657C82.2051 61.9657 82.3223 61.9423 82.4747 61.9073C82.5098 62.9118 82.6973 63.7119 83.0489 64.3077C83.1134 64.4011 83.1954 64.4478 83.2892 64.4478C83.3536 64.4478 83.4239 64.4303 83.506 64.3894C83.6876 64.3076 83.7755 64.1967 83.7755 64.0565C83.7755 64.039 83.7755 64.0215 83.7697 63.9981C83.5704 63.0053 83.4708 62.2577 83.4591 61.7671C83.799 61.697 84.2502 61.6094 84.8127 61.516C85.3694 61.4225 85.8909 61.3349 86.3597 61.2473C86.3597 61.3933 86.3539 61.5335 86.3539 61.6737C86.3539 62.5205 86.4066 63.1454 86.5121 63.5484C86.6176 63.9455 86.7406 64.15 86.8813 64.15C86.9457 64.15 87.057 64.1208 87.2153 64.0624C87.3735 64.004 87.4555 63.8871 87.4555 63.7061C87.4555 63.6769 87.4321 63.5192 87.3793 63.2272C87.3266 62.9352 87.3032 62.2168 87.3032 61.0721C87.3325 61.0721 87.3793 61.0546 87.4438 61.0371C87.5083 61.0196 87.5551 60.967 87.5727 60.8794C87.5903 60.7918 87.602 60.7392 87.602 60.7159C87.602 60.6107 87.561 60.5523 87.479 60.5407Z" fill="#117139"/>
<path d="M94.8032 63.3144C94.6098 63.2735 94.434 63.256 94.2641 63.2501C94.2875 63.2385 94.311 63.2268 94.3403 63.2093C94.5337 63.0866 94.6274 62.9815 94.6274 62.8822C94.5747 62.6778 94.4575 62.2923 94.27 61.7258C94.0825 61.1593 93.9184 60.476 93.7719 59.6817C93.6254 58.8874 93.4848 58.391 93.3324 58.1983C93.1859 58.0056 92.9163 57.9121 92.5237 57.9121C91.9436 57.9121 91.5393 58.1107 91.3225 58.5137C91.1057 58.9166 90.7834 59.7927 90.3673 61.1476C89.9513 62.5026 89.7403 63.2034 89.7403 63.2677C89.7403 63.3436 89.752 63.402 89.7813 63.437C89.6993 63.4546 89.6114 63.4662 89.5235 63.4721C89.4532 63.437 89.3829 63.4195 89.3184 63.4195C89.2071 63.4195 89.084 63.4838 88.9492 63.6181C88.8145 63.7524 88.7441 63.9101 88.7441 64.1028C88.7441 64.6577 88.7441 65.4227 88.7383 66.4039C88.7383 66.585 88.8262 66.6901 89.0078 66.7135C89.1953 66.7135 89.336 66.6434 89.4122 66.5032C89.5762 66.2229 89.6759 65.5045 89.7227 64.354C89.9278 64.354 90.1681 64.3598 90.4318 64.3598C90.7775 64.3598 91.3459 64.3364 92.137 64.2956C92.9281 64.2547 93.4027 64.2313 93.5668 64.2313C94.393 64.2313 94.8325 64.3598 94.8911 64.6168C94.8735 64.8971 94.8267 65.3235 94.7505 65.8958C94.6743 66.4682 94.6333 66.7952 94.6333 66.8653C94.6333 66.9529 94.7329 66.9996 94.9263 67.0055C95.1079 67.0055 95.2368 66.9412 95.313 66.8069C95.6939 65.8491 95.8873 65.084 95.8873 64.5175C95.8873 63.8634 95.524 63.4604 94.8032 63.3202V63.3144ZM91.844 63.2969C91.3869 63.3377 90.9474 63.3728 90.5255 63.4078C90.8127 62.9932 91.1291 62.2223 91.4748 61.1068C91.8206 59.9854 92.0198 59.343 92.0842 59.1736C92.1487 59.0042 92.2483 58.9166 92.3772 58.9108C92.5062 58.9108 92.5999 58.9926 92.6644 59.1561C92.7288 59.3196 92.8519 59.8452 93.0394 60.733C93.2269 61.6207 93.5023 62.4091 93.8598 63.1041C93.8949 63.1684 93.936 63.2151 93.9887 63.2443C93.4262 63.2443 92.7113 63.2618 91.844 63.3027V63.2969Z" fill="#117139"/>
<path d="M104.962 63.361C104.651 63.1098 104.469 62.6952 104.422 62.1228C104.376 61.5446 104.346 60.8321 104.346 59.9911C104.346 59.3545 104.346 58.9574 104.352 58.8055C104.352 58.6537 104.358 58.5486 104.358 58.5018C104.358 58.2799 104.253 58.1689 104.036 58.1689C103.936 58.1689 103.784 58.2098 103.567 58.2974C103.356 58.385 103.239 58.5486 103.221 58.7939C103.174 59.4188 103.145 60.0203 103.127 60.5868C103.11 61.1533 103.051 61.5855 102.958 61.8834C102.864 62.1754 102.706 62.4733 102.489 62.7769C102.272 63.0748 102.09 63.2267 101.95 63.2267C101.692 63.2267 101.516 63.139 101.434 62.958C101.352 62.7769 101.282 62.2922 101.223 61.5038C101.223 61.3286 101.223 60.9898 101.235 60.4934C101.241 59.997 101.264 59.5881 101.293 59.2669C101.323 58.9399 101.34 58.7471 101.34 58.6887C101.34 58.4902 101.223 58.3792 100.983 58.3617C100.666 58.3617 100.45 58.4902 100.344 58.753C100.297 58.8698 100.239 59.2669 100.162 59.9444C100.086 60.6219 99.9104 61.3753 99.6408 62.1988C99.3654 63.0222 99.0256 63.4369 98.6154 63.4369C98.3693 63.4369 98.1817 63.3493 98.0528 63.1683C97.9239 62.9872 97.8595 62.5317 97.8595 61.7958C97.8595 61.6089 97.8653 61.2176 97.8829 60.6219C97.9005 60.0262 98.0353 59.4188 98.2872 58.7997C98.3048 58.7471 98.3107 58.7063 98.3107 58.6654C98.3107 58.5778 98.2755 58.5194 98.1993 58.4902C98.1232 58.461 98.0646 58.4493 98.0177 58.4493C97.9298 58.4493 97.8477 58.5077 97.7774 58.6303C97.3204 59.3428 97.0449 60.032 96.957 60.7036C96.8633 61.3753 96.8164 61.9067 96.8164 62.3039C96.8164 63.0514 96.9805 63.5946 97.3028 63.9216C97.6309 64.2545 98.0353 64.4181 98.5275 64.4181C99.2248 64.4181 99.8401 63.8924 100.362 62.8353C100.467 63.507 100.696 63.9392 101.053 64.1261C101.287 64.2487 101.58 64.3071 101.92 64.3071C102.454 64.3071 102.934 63.945 103.368 63.215C103.491 63.5654 103.661 63.8632 103.878 64.1027C104.094 64.3422 104.27 64.4648 104.399 64.4648C104.587 64.4648 104.756 64.3714 104.921 64.1903C105.079 64.0093 105.161 63.8457 105.161 63.7056C105.161 63.5771 105.091 63.4661 104.944 63.3668L104.962 63.361Z" fill="#117139"/>
<path d="M110.831 61.4175C110.397 61.4175 109.905 61.6861 109.348 62.2235C108.791 62.7608 108.364 63.0294 108.059 63.0294C107.602 63.0061 107.373 62.5972 107.367 61.8029C107.367 61.2773 107.596 60.6874 108.053 60.045C108.51 59.4026 108.967 59.0814 109.424 59.0814C109.799 59.0814 110.022 59.4026 110.098 60.0392C110.116 60.8685 110.192 61.2773 110.333 61.2773C110.555 61.2773 110.743 61.2131 110.889 61.0846C111.036 60.9561 111.112 60.5882 111.112 59.9749C111.112 59.4259 110.995 58.9938 110.754 58.6784C110.514 58.363 110.18 58.2053 109.747 58.2053C108.621 58.2053 107.748 58.6375 107.133 59.496C106.518 60.3546 106.195 61.1547 106.172 61.8964C106.172 62.5155 106.319 63.0528 106.606 63.5083C106.893 63.958 107.274 64.1858 107.737 64.1858C108.434 64.1858 109.079 63.8879 109.67 63.2864C110.262 62.6848 110.637 62.387 110.801 62.387C111.1 62.387 111.393 62.5739 111.674 62.9535C111.956 63.3331 112.155 63.52 112.26 63.52C112.319 63.52 112.354 63.4966 112.372 63.4558C112.389 63.409 112.395 63.3682 112.395 63.3331C112.395 63.1112 112.249 62.7432 111.962 62.2235C111.674 61.7037 111.294 61.435 110.819 61.4116L110.831 61.4175Z" fill="#117139"/>
<path d="M118.432 57.8831C118.444 57.5911 118.455 57.2874 118.467 56.9778C118.537 56.6741 118.573 56.4113 118.573 56.1952C118.573 55.7806 118.426 55.5703 118.139 55.5703C117.799 55.5703 117.571 55.8214 117.465 56.3295C117.412 56.5748 117.36 57.1122 117.307 57.9473C116.258 58.0816 115.379 58.4321 114.67 59.0103C113.961 59.5826 113.609 60.3827 113.609 61.4048C113.609 62.2458 113.85 62.9583 114.33 63.5365C114.811 64.1147 115.713 64.4009 117.037 64.4009C117.002 65.5222 116.985 66.1471 116.985 66.2756C117.008 66.6611 117.131 66.8479 117.36 66.8479C117.758 66.8479 117.963 66.6143 117.981 66.1413C118.016 65.9544 118.063 65.3411 118.121 64.3074C119.258 64.138 120.167 63.7701 120.852 63.1978C121.538 62.6254 121.924 61.8194 122.007 60.774C122.007 59.7228 121.772 58.9869 121.309 58.5605C120.846 58.1342 119.885 57.9064 118.432 57.8831ZM117.137 61.2413C117.108 62.0355 117.078 62.7364 117.049 63.3379C115.865 63.3146 115.186 63.1218 115.004 62.7481C114.822 62.3801 114.734 62.0297 114.734 61.7026C114.734 60.7215 114.975 60.044 115.455 59.676C115.936 59.3081 116.533 59.057 117.242 58.9226C117.201 59.4074 117.166 60.1783 117.131 61.2354L117.137 61.2413ZM119.926 62.4969C119.305 62.8532 118.725 63.0868 118.192 63.1978C118.25 62.0005 118.321 60.5755 118.397 58.9343C119.176 58.9343 119.792 59.0103 120.243 59.1621C120.694 59.314 120.917 59.8629 120.917 60.8207C120.876 61.5858 120.547 62.1465 119.926 62.5028V62.4969Z" fill="#117139"/>
<path d="M129.231 58.1583C129.231 58.0299 128.282 57.9422 126.371 57.9014C124.912 57.9306 123.817 58.0299 123.084 58.1992C122.984 58.1992 122.879 58.3219 122.762 58.573C122.645 58.8241 122.586 59.0344 122.586 59.2038C122.586 59.268 122.68 59.303 122.844 59.303L125.076 58.8942C125.035 59.4315 125.018 59.9396 125.018 60.4127C125.018 61.9545 125.117 62.9883 125.311 63.5139C125.504 64.0395 125.656 64.3023 125.768 64.3023C125.867 64.3023 125.926 64.1914 125.955 63.9753C125.979 63.7534 126.014 63.1985 126.049 62.2991C126.049 61.4581 126.119 60.2842 126.266 58.7657C126.741 58.7132 127.532 58.608 128.645 58.4387C129.043 58.3043 129.243 58.2109 129.243 58.1583H129.231Z" fill="#117139"/>
<path d="M134.52 60.5407C134.438 60.529 134.379 60.5231 134.344 60.5173C134.344 60.2253 134.356 59.9625 134.379 59.7405C134.403 59.5128 134.415 59.3492 134.415 59.2383C134.415 58.6134 134.368 58.2045 134.274 58.0176C134.18 57.8307 134.086 57.7373 133.998 57.7373C133.94 57.7373 133.887 57.7665 133.834 57.8249C133.782 57.8833 133.758 57.9417 133.758 58.006C133.758 58.0352 133.758 58.0585 133.764 58.076C133.764 58.0936 133.77 58.1286 133.77 58.1695C133.77 58.3213 133.729 58.5491 133.647 58.8586C133.565 59.1682 133.495 59.7055 133.442 60.4764C132.885 60.4764 132.328 60.5231 131.766 60.6049C131.203 60.6867 130.758 60.7626 130.43 60.8443C130.442 60.6049 130.447 60.3187 130.447 59.98C130.512 58.8236 130.541 58.1753 130.541 58.0235C130.529 57.8658 130.447 57.7899 130.301 57.7899C130.242 57.7899 130.119 57.8366 129.932 57.9242C129.744 58.0118 129.65 58.1636 129.645 58.3739C129.645 58.5841 129.609 58.8119 129.557 59.0455C129.498 59.285 129.469 59.5478 129.469 59.834C129.469 60.1902 129.469 60.6516 129.463 61.2181C129.334 61.2941 129.217 61.3875 129.111 61.4985C129.006 61.6094 128.953 61.7087 128.953 61.7905C128.953 61.8898 129.023 61.9482 129.158 61.9657C129.252 61.9657 129.369 61.9423 129.522 61.9073C129.557 62.9118 129.744 63.7119 130.09 64.3077C130.154 64.4011 130.236 64.4478 130.33 64.4478C130.395 64.4478 130.465 64.4303 130.547 64.3894C130.729 64.3076 130.817 64.1967 130.817 64.0565C130.817 64.039 130.817 64.0215 130.811 63.9981C130.611 63.0053 130.512 62.2577 130.5 61.7671C130.84 61.697 131.291 61.6094 131.848 61.516C132.41 61.4225 132.926 61.3349 133.395 61.2473C133.395 61.3933 133.389 61.5335 133.389 61.6737C133.389 62.5205 133.442 63.1454 133.547 63.5484C133.653 63.9455 133.776 64.15 133.916 64.15C133.981 64.15 134.092 64.1208 134.25 64.0624C134.409 64.004 134.491 63.8871 134.491 63.7061C134.491 63.6769 134.467 63.5192 134.415 63.2272C134.362 62.9352 134.338 62.2168 134.338 61.0721C134.368 61.0721 134.415 61.0546 134.479 61.0371C134.543 61.0196 134.59 60.967 134.608 60.8794C134.625 60.7918 134.637 60.7392 134.637 60.7159C134.637 60.6107 134.596 60.5523 134.514 60.5407H134.52Z" fill="#117139"/>
<path d="M140.014 60.1022C139.592 59.7868 139.059 59.6291 138.414 59.6291C138.098 59.6291 137.811 59.6992 137.547 59.8393L137.711 57.7602C137.705 57.6492 137.647 57.5908 137.529 57.5908C137.172 57.62 136.961 57.766 136.897 58.0347C136.832 58.3033 136.703 59.0976 136.51 60.4292C136.316 61.7608 136.211 62.6485 136.188 63.0924C136.164 63.5421 136.152 63.8283 136.152 63.9568C136.152 64.1728 136.252 64.2838 136.439 64.2838C136.727 64.2838 136.908 64.1845 136.979 63.9918C137.207 64.1553 137.5 64.2313 137.846 64.2313C138.192 64.2313 138.619 64.1612 139.147 64.021C139.674 63.8808 140.061 63.5713 140.307 63.0982C140.553 62.6193 140.682 62.0879 140.682 61.498C140.664 60.8789 140.442 60.4175 140.02 60.1022H140.014ZM139.492 62.4032C139.393 62.631 139.205 62.8179 138.936 62.9464C138.666 63.0807 138.432 63.145 138.233 63.145C137.863 63.145 137.512 63.069 137.178 62.9172C137.225 62.3332 137.313 61.6148 137.447 60.7504C137.793 60.6511 138.092 60.5986 138.35 60.5986C138.754 60.5986 139.071 60.6803 139.293 60.838C139.516 60.9957 139.639 61.3169 139.651 61.79C139.651 61.9594 139.598 62.1638 139.498 62.3916L139.492 62.4032Z" fill="#117139"/>
<path d="M142.617 57.8476C142.418 57.8593 142.295 57.9119 142.26 58.0053C142.225 58.0988 142.196 58.1747 142.178 58.2389L142.119 59.0799C142.055 59.6932 141.996 60.3414 141.938 61.0306C141.879 61.7197 141.826 62.4556 141.774 63.2265C141.791 63.6295 141.844 63.9157 141.926 64.0734C142.008 64.2369 142.125 64.3187 142.266 64.3304C142.371 64.3304 142.459 64.3128 142.524 64.2778C142.594 64.2428 142.647 64.1552 142.682 64.0208L142.717 63.0805C142.74 62.6717 142.77 62.2337 142.805 61.7665C142.84 61.3051 142.869 60.8495 142.887 60.4115C142.905 59.9735 142.922 59.5355 142.928 59.1033L142.858 58.1046C142.817 57.9411 142.74 57.8476 142.623 57.8359L142.617 57.8476Z" fill="#117139"/>
<path d="M148.996 58.5243C148.985 58.3316 148.897 58.2323 148.727 58.2323C148.68 58.2323 148.569 58.2556 148.387 58.2965C148.205 58.3374 147.959 58.6703 147.643 59.301C147.326 59.926 146.635 61.1174 145.563 62.8753C145.416 62.2562 145.334 61.2517 145.305 59.8617C145.305 59.5522 145.316 59.2368 145.34 58.9097C145.363 58.5885 145.375 58.3491 145.375 58.2031C145.322 57.9928 145.205 57.8877 145.012 57.8877C144.895 57.9344 144.813 58.0103 144.76 58.1155C144.707 58.2264 144.637 58.5009 144.555 58.9389C144.467 59.3828 144.426 60.0369 144.426 60.9013C144.443 62.2504 144.549 63.1557 144.742 63.6229C144.936 64.0843 145.117 64.3179 145.293 64.3179C145.481 64.3179 145.815 63.985 146.301 63.325C146.787 62.6592 147.397 61.6196 148.129 60.2063C148.27 62.0869 148.657 63.4418 149.295 64.2595C149.389 64.3938 149.5 64.458 149.635 64.458C149.741 64.458 149.87 64.4055 150.028 64.3062C150.186 64.2011 150.268 64.0784 150.268 63.9383C150.268 63.8682 150.245 63.7922 150.198 63.7105C149.571 62.7176 149.172 60.9889 149.002 58.5301L148.996 58.5243Z" fill="#117139"/>
<path d="M144.742 54.6768C144.742 55.0506 144.924 55.3952 145.281 55.7164C145.639 56.0376 146.19 56.2011 146.934 56.2011C147.83 56.2011 148.551 55.8565 149.108 55.1791C149.664 54.4958 149.94 53.7891 149.94 53.0532C149.94 52.9481 149.922 52.8955 149.887 52.8955C149.77 52.8955 149.694 52.9539 149.653 53.059C149.512 53.5671 149.172 54.046 148.633 54.4782C148.088 54.9163 147.514 55.1323 146.91 55.1323C146.483 55.1323 146.154 55.0389 145.932 54.8579C145.709 54.6768 145.592 54.4315 145.592 54.1337C145.592 53.8533 145.58 53.6255 145.557 53.4503C145.557 53.3277 145.504 53.2693 145.398 53.2693C145.24 53.2693 145.094 53.4095 144.953 53.6839C144.813 53.9584 144.742 54.2913 144.742 54.6768Z" fill="#117139"/>
<path d="M161.694 63.3144C161.5 63.2735 161.325 63.256 161.155 63.2501C161.178 63.2385 161.202 63.2268 161.231 63.2093C161.424 63.0866 161.518 62.9815 161.518 62.8822C161.465 62.6778 161.348 62.2923 161.161 61.7258C160.973 61.1593 160.809 60.476 160.663 59.6817C160.516 58.8874 160.375 58.391 160.223 58.1983C160.077 58.0056 159.807 57.9121 159.414 57.9121C158.828 57.9121 158.43 58.1107 158.213 58.5137C157.996 58.9166 157.674 59.7927 157.258 61.1476C156.842 62.5026 156.631 63.2034 156.631 63.2677C156.631 63.3436 156.649 63.402 156.672 63.437C156.59 63.4546 156.502 63.4662 156.414 63.4721C156.344 63.437 156.273 63.4195 156.209 63.4195C156.098 63.4195 155.975 63.4838 155.84 63.6181C155.705 63.7524 155.635 63.9101 155.635 64.1028C155.635 64.6577 155.635 65.4227 155.629 66.4039C155.629 66.585 155.717 66.6901 155.898 66.7135C156.092 66.7135 156.227 66.6434 156.303 66.5032C156.467 66.2229 156.566 65.5045 156.613 64.354C156.818 64.354 157.059 64.3598 157.322 64.3598C157.668 64.3598 158.237 64.3364 159.028 64.2956C159.819 64.2547 160.293 64.2313 160.457 64.2313C161.284 64.2313 161.723 64.3598 161.782 64.6168C161.764 64.8971 161.717 65.3235 161.641 65.8958C161.565 66.4682 161.524 66.7952 161.524 66.8653C161.524 66.9529 161.624 66.9996 161.817 67.0055C161.999 67.0055 162.127 66.9412 162.204 66.8069C162.585 65.8491 162.778 65.084 162.778 64.5175C162.778 63.8634 162.415 63.4604 161.694 63.3202V63.3144ZM158.735 63.2969C158.278 63.3377 157.838 63.3728 157.416 63.4078C157.703 62.9932 158.02 62.2223 158.365 61.1068C158.711 59.9854 158.91 59.343 158.975 59.1736C159.039 59.0042 159.139 58.9166 159.268 58.9108C159.397 58.9108 159.491 58.9926 159.555 59.1561C159.619 59.3196 159.743 59.8452 159.93 60.733C160.118 61.6207 160.393 62.4091 160.75 63.1041C160.786 63.1684 160.827 63.2151 160.879 63.2443C160.317 63.2443 159.602 63.2618 158.735 63.3027V63.2969Z" fill="#117139"/>
<path d="M168.266 58.5243C168.254 58.3316 168.166 58.2323 167.996 58.2323C167.95 58.2323 167.838 58.2556 167.657 58.2965C167.475 58.3374 167.229 58.6703 166.912 59.301C166.596 59.926 165.904 61.1174 164.832 62.8753C164.686 62.2562 164.604 61.2517 164.574 59.8617C164.574 59.5522 164.586 59.2368 164.609 58.9097C164.633 58.5885 164.645 58.3491 164.645 58.2031C164.592 57.9928 164.475 57.8877 164.281 57.8877C164.164 57.9344 164.082 58.0103 164.029 58.1155C163.977 58.2264 163.906 58.5009 163.824 58.9389C163.736 59.3828 163.695 60.0369 163.695 60.9013C163.713 62.2504 163.818 63.1557 164.012 63.6229C164.205 64.0843 164.387 64.3179 164.563 64.3179C164.75 64.3179 165.084 63.985 165.57 63.325C166.057 62.6592 166.666 61.6196 167.399 60.2063C167.539 62.0869 167.926 63.4418 168.565 64.2595C168.659 64.3938 168.77 64.458 168.905 64.458C169.01 64.458 169.139 64.4055 169.297 64.3062C169.456 64.2069 169.538 64.0784 169.538 63.9383C169.538 63.8682 169.514 63.7922 169.467 63.7105C168.84 62.7176 168.442 60.9889 168.272 58.5301L168.266 58.5243Z" fill="#117139"/>
<path d="M173.553 60.073C173.664 59.962 173.787 59.7927 173.934 59.5591C174.08 59.3313 174.151 59.086 174.151 58.8407C174.151 58.5545 174.004 58.3268 173.705 58.1574C173.406 57.9939 173.084 57.9062 172.738 57.9062C172.445 57.9062 172.006 58.0055 171.426 58.2041C170.846 58.4027 170.465 58.7239 170.289 59.1678C170.271 59.2086 170.266 59.2378 170.266 59.267C170.266 59.3254 170.295 59.378 170.354 59.4364C170.412 59.4948 170.459 59.524 170.494 59.524C170.541 59.524 170.588 59.5007 170.641 59.4481C171.115 59.0334 171.766 58.7765 172.598 58.683C172.873 58.683 173.049 58.7356 173.113 58.8349C173.178 58.94 173.213 59.0276 173.213 59.1035C173.213 59.197 173.137 59.3605 172.99 59.5941C172.844 59.8277 172.551 60.0263 172.111 60.184C171.906 60.2599 171.801 60.4059 171.801 60.6162C171.813 60.8206 171.901 60.9257 172.059 60.9257C172.111 60.9257 172.199 60.9082 172.328 60.8731C172.457 60.8381 172.615 60.8206 172.803 60.8206C173.242 60.8206 173.594 60.9549 173.869 61.2235C174.139 61.4922 174.274 61.7667 174.274 62.0412C174.274 62.2865 174.139 62.5727 173.875 62.9056C173.612 63.2384 173.096 63.437 172.34 63.5071C171.83 63.5071 171.426 63.3436 171.121 63.0165C171.063 62.9581 170.998 62.9231 170.922 62.9231C170.846 62.9231 170.758 62.964 170.658 63.0457C170.559 63.1275 170.506 63.2209 170.506 63.3202C170.506 63.3669 170.518 63.4078 170.541 63.4545C170.869 64.0736 171.379 64.389 172.07 64.389C173.196 64.3715 173.992 64.1028 174.45 63.583C174.912 63.0632 175.141 62.5493 175.141 62.0412C175.141 61.6032 175.006 61.1827 174.737 60.7738C174.467 60.3709 174.069 60.1314 173.553 60.0555V60.073Z" fill="#117139"/>
<path d="M180.895 61.4172C180.461 61.4172 179.969 61.6859 179.412 62.2232C178.856 62.7605 178.428 63.0292 178.123 63.0292C177.666 63.0058 177.438 62.597 177.432 61.8027C177.432 61.2771 177.66 60.6872 178.123 60.0448C178.58 59.4023 179.037 59.0811 179.494 59.0811C179.869 59.0811 180.092 59.4023 180.168 60.0389C180.186 60.8683 180.262 61.2771 180.403 61.2771C180.625 61.2771 180.813 61.2128 180.959 61.0843C181.106 60.9559 181.182 60.5879 181.182 59.9747C181.182 59.4257 181.065 58.9935 180.825 58.6781C180.584 58.3628 180.25 58.2051 179.817 58.2051C178.692 58.2051 177.818 58.6373 177.203 59.4958C176.588 60.3543 176.266 61.1544 176.242 61.8962C176.242 62.5152 176.389 63.0525 176.676 63.5081C176.963 63.9578 177.344 64.1856 177.807 64.1856C178.504 64.1856 179.149 63.8877 179.741 63.2861C180.332 62.6846 180.707 62.3867 180.871 62.3867C181.17 62.3867 181.463 62.5736 181.745 62.9532C182.026 63.3329 182.225 63.5198 182.331 63.5198C182.389 63.5198 182.424 63.4964 182.442 63.4555C182.459 63.4088 182.465 63.3679 182.465 63.3329C182.465 63.1109 182.319 62.743 182.032 62.2232C181.745 61.7034 181.364 61.4348 180.889 61.4114L180.895 61.4172Z" fill="#117139"/>
<path d="M188.227 58.5243C188.215 58.3316 188.127 58.2323 187.957 58.2323C187.91 58.2323 187.799 58.2556 187.617 58.2965C187.436 58.3374 187.19 58.6703 186.873 59.301C186.557 59.926 185.865 61.1174 184.793 62.8753C184.647 62.2562 184.565 61.2517 184.535 59.8617C184.535 59.5522 184.547 59.2368 184.57 58.9097C184.594 58.5885 184.606 58.3491 184.606 58.2031C184.553 57.9928 184.436 57.8877 184.242 57.8877C184.125 57.9344 184.043 58.0103 183.99 58.1155C183.938 58.2264 183.867 58.5009 183.785 58.9389C183.697 59.3828 183.656 60.0369 183.656 60.9013C183.674 62.2504 183.779 63.1557 183.973 63.6229C184.166 64.0843 184.348 64.3179 184.523 64.3179C184.711 64.3179 185.045 63.985 185.531 63.325C186.018 62.6592 186.627 61.6196 187.36 60.2063C187.5 62.0869 187.887 63.4418 188.526 64.2595C188.62 64.3938 188.731 64.458 188.866 64.458C188.971 64.458 189.1 64.4055 189.258 64.3062C189.416 64.2069 189.499 64.0784 189.499 63.9383C189.499 63.8682 189.475 63.7922 189.428 63.7105C188.801 62.7176 188.403 60.9889 188.233 58.5301L188.227 58.5243Z" fill="#117139"/>
<path d="M186.172 56.2011C187.069 56.2011 187.789 55.8565 188.346 55.1791C188.903 54.4958 189.178 53.7891 189.178 53.0532C189.178 52.9481 189.161 52.8955 189.125 52.8955C189.008 52.8955 188.932 52.9539 188.891 53.059C188.75 53.5671 188.41 54.046 187.871 54.4782C187.326 54.9163 186.752 55.1323 186.149 55.1323C185.721 55.1323 185.393 55.0389 185.17 54.8579C184.947 54.6768 184.83 54.4315 184.83 54.1337C184.83 53.8533 184.818 53.6255 184.795 53.4503C184.795 53.3277 184.742 53.2693 184.637 53.2693C184.479 53.2693 184.332 53.4095 184.191 53.6839C184.051 53.9584 183.98 54.2913 183.98 54.6768C183.98 55.0623 184.162 55.3952 184.52 55.7164C184.877 56.0376 185.428 56.2011 186.172 56.2011Z" fill="#117139"/>
<path d="M195.875 60.5407C195.793 60.529 195.735 60.5231 195.7 60.5173C195.7 60.2253 195.711 59.9625 195.735 59.7405C195.758 59.5128 195.77 59.3492 195.77 59.2383C195.77 58.6134 195.723 58.2045 195.629 58.0176C195.536 57.8307 195.442 57.7373 195.354 57.7373C195.295 57.7373 195.243 57.7665 195.19 57.8249C195.137 57.8833 195.114 57.9417 195.114 58.006C195.114 58.0352 195.114 58.0585 195.12 58.076C195.12 58.0936 195.125 58.1286 195.125 58.1695C195.125 58.3213 195.084 58.5491 195.002 58.8586C194.92 59.1682 194.85 59.7055 194.797 60.4764C194.241 60.4764 193.684 60.5231 193.121 60.6049C192.559 60.6867 192.113 60.7626 191.785 60.8443C191.797 60.6049 191.803 60.3187 191.803 59.98C191.867 58.8236 191.897 58.1753 191.897 58.0235C191.885 57.8658 191.803 57.7899 191.656 57.7899C191.598 57.7899 191.475 57.8366 191.287 57.9242C191.1 58.0118 191.006 58.1636 191 58.3739C191 58.5841 190.965 58.8119 190.912 59.0455C190.854 59.285 190.824 59.5478 190.824 59.834C190.824 60.1902 190.824 60.6516 190.818 61.2181C190.689 61.2941 190.572 61.3875 190.467 61.4985C190.361 61.6094 190.309 61.7087 190.309 61.7905C190.309 61.8898 190.379 61.9482 190.514 61.9657C190.607 61.9657 190.725 61.9423 190.877 61.9073C190.912 62.9118 191.1 63.7119 191.445 64.3077C191.51 64.4011 191.592 64.4478 191.686 64.4478C191.75 64.4478 191.82 64.4303 191.902 64.3894C192.084 64.3076 192.172 64.1967 192.172 64.0565C192.172 64.039 192.172 64.0215 192.166 63.9981C191.967 63.0053 191.867 62.2577 191.856 61.7671C192.195 61.697 192.647 61.6094 193.203 61.516C193.766 61.4225 194.282 61.3349 194.75 61.2473C194.75 61.3933 194.744 61.5335 194.744 61.6737C194.744 62.5205 194.797 63.1454 194.903 63.5484C195.008 63.9455 195.131 64.15 195.272 64.15C195.336 64.15 195.448 64.1208 195.606 64.0624C195.764 64.004 195.846 63.8871 195.846 63.7061C195.846 63.6769 195.823 63.5192 195.77 63.2272C195.717 62.9352 195.694 62.2168 195.694 61.0721C195.723 61.0721 195.77 61.0546 195.834 61.0371C195.899 61.0196 195.946 60.967 195.963 60.8794C195.981 60.7918 195.993 60.7392 195.993 60.7159C195.993 60.6107 195.952 60.5523 195.87 60.5407H195.875Z" fill="#117139"/>
<path d="M44.3531 23.4379C44.3531 23.1167 44.1129 22.959 43.6382 22.959H29.0472C28.5726 22.959 28.3323 23.1167 28.3323 23.4379C28.3323 23.8058 28.6019 24.1329 29.1351 24.4132V45.2514C29.0296 48.3351 27.7463 49.9587 25.2969 50.1223C24.8574 50.1223 24.6406 50.3033 24.6406 50.6596V50.7004C24.6523 51.0567 24.9043 51.2378 25.3965 51.2378H25.4844C28.93 51.1794 30.7583 49.2871 30.9868 45.5668V24.4658H41.6928V49.6784C41.1654 49.9587 40.9075 50.2683 40.9075 50.607C40.9075 50.9049 41.1244 51.0567 41.5639 51.0567C41.6342 51.0567 41.6986 51.0567 41.7689 51.0392C42.0619 51.01 42.3491 50.9983 42.6303 50.9983C42.9116 50.9983 43.2105 51.01 43.4917 51.0392C43.5621 51.0509 43.6265 51.0567 43.6968 51.0567C44.1363 51.0567 44.3531 50.9049 44.3531 50.607C44.3531 50.2683 44.0836 49.9587 43.5503 49.6784V24.4074C44.0836 24.127 44.3531 23.8 44.3531 23.432V23.4379Z" fill="#117139"/>
<path d="M63.714 57.7553C59.5008 57.4867 56.2896 55.9098 54.0687 53.0305C52.2991 50.7353 51.4142 47.6691 51.4142 43.8379C51.4142 42.7691 51.5256 41.1747 51.7482 39.0371C52.7093 41.3148 55.5864 42.6231 60.3681 42.9618C64.3 43.4758 66.7319 44.1766 67.6636 45.0702C68.566 45.9404 69.0231 46.7522 69.0231 47.4997C69.0055 48.2823 68.8414 49.024 68.5425 49.7249L67.728 50.525C67.728 50.8813 67.9566 51.0623 68.4136 51.0623C68.4722 51.0623 68.5308 51.0623 68.5894 51.0448C68.8824 51.0156 69.1695 51.0039 69.4508 51.0039C69.7321 51.0039 70.0309 51.0156 70.3122 51.0448C70.3825 51.0565 70.447 51.0623 70.5173 51.0623C70.9568 51.0623 71.1736 50.9046 71.1736 50.5951C71.1736 50.2564 70.9744 49.9877 70.5759 49.795C71.1619 47.9903 71.449 45.9929 71.449 43.7911C71.449 42.6873 71.3846 41.5251 71.2615 40.2986C70.6111 36.0527 69.0816 32.2916 66.6791 29.0093C64.2766 25.7271 62.337 23.6538 60.8603 22.7777C60.6435 22.6492 60.5028 22.5908 60.4208 22.5908C60.3212 22.5908 60.1688 22.6551 59.952 22.7777C58.4812 23.6479 56.5474 25.7271 54.1391 29.0093C51.7307 32.2916 50.2012 36.0527 49.5508 40.2986C49.4219 41.5193 49.3633 42.6815 49.3633 43.7911C49.3633 48.113 50.4708 51.5587 52.6917 54.1168C55.4165 57.3056 59.0906 58.9 63.7199 58.9C64.2356 58.9 64.4934 58.7365 64.4934 58.4036C64.4934 57.9889 64.2356 57.767 63.7199 57.7495L63.714 57.7553ZM55.6861 30.1073C57.3913 27.5609 58.9734 25.7679 60.4208 24.7225C61.8623 25.7679 63.5441 27.7128 65.4778 30.5512C67.4057 33.3895 68.6539 36.6835 69.2223 40.4271C69.3219 41.4375 69.3688 43.1137 69.3688 45.4556C68.7359 43.6042 66.1693 42.3311 61.6631 41.6302C56.272 41.0988 53.2542 39.5102 52.6038 36.8762C52.9554 34.908 53.9808 32.6537 55.6919 30.1073H55.6861Z" fill="#117139"/>
<path d="M91.0345 41.0745V49.6831C90.5188 49.9634 90.261 50.273 90.261 50.6117C90.261 50.9095 90.4778 51.0614 90.9173 51.0614C90.9876 51.0614 91.052 51.0614 91.1224 51.0439C91.4153 51.0147 91.7025 51.003 91.9838 51.003C92.265 51.003 92.5639 51.0147 92.8452 51.0439C92.9155 51.0556 92.9799 51.0614 93.0503 51.0614C93.4897 51.0614 93.7066 50.9095 93.7066 50.6117C93.7066 50.273 93.4429 49.9634 92.9213 49.6831V24.3069C93.4487 24.0266 93.7066 23.7112 93.7066 23.3608C93.7066 23.063 93.4897 22.9111 93.0503 22.9111C92.9799 22.9111 92.9155 22.9111 92.8452 22.9228C92.5639 22.9403 92.2767 22.952 91.9838 22.952C91.6908 22.952 91.4153 22.9403 91.1224 22.9228C91.052 22.9111 90.9876 22.9111 90.9173 22.9111C90.4778 22.9111 90.261 23.063 90.261 23.3608C90.261 23.7112 90.5247 24.0266 91.0462 24.3069L91.0345 35.7189C90.8762 35.3685 90.7063 35.0181 90.5247 34.656C89.3761 32.5067 86.997 30.6262 83.3932 29.0142C80.5747 27.7527 78.764 26.1642 77.967 24.2427C78.4358 23.9624 78.6643 23.6587 78.6643 23.3258C78.6643 23.0454 78.4475 22.9053 78.008 22.9053C77.9494 22.9053 77.8791 22.9053 77.8029 22.917C77.5217 22.9345 77.2345 22.9462 76.9415 22.9462C76.6486 22.9462 76.3731 22.9345 76.0801 22.917C76.0098 22.9053 75.9454 22.9053 75.8751 22.9053C75.4356 22.9053 75.2188 23.0571 75.2188 23.355C75.2188 23.7054 75.4883 24.0208 76.0216 24.3011V49.6772C75.4883 49.9576 75.2188 50.2671 75.2188 50.6058C75.2188 50.9037 75.4356 51.0556 75.8751 51.0556C75.9454 51.0556 76.0098 51.0556 76.0801 51.038C76.3731 51.0088 76.6603 50.9971 76.9415 50.9971C77.2228 50.9971 77.5217 51.0088 77.8029 51.038C77.8733 51.0497 77.9377 51.0556 78.008 51.0556C78.4475 51.0556 78.6643 50.9037 78.6643 50.6058C78.6643 50.2671 78.4006 49.9576 77.8791 49.6772V27.268C79.0394 28.5762 80.3344 29.5515 81.7759 30.1881C85.5086 31.8468 87.9873 33.6339 89.2121 35.5437C90.4309 37.4593 91.0403 39.299 91.0403 41.0628L91.0345 41.0745Z" fill="#117139"/>
<path d="M100.678 35.4339C102.167 35.4339 103.432 35.0484 104.47 34.2833C105.395 33.5007 105.905 32.6013 105.999 31.5909C105.999 30.8434 105.782 30.2243 105.354 29.7279C104.839 29.1263 104.136 28.8051 103.251 28.7526C102.501 28.7526 101.903 28.9394 101.458 29.3191C101.03 29.6753 100.813 30.0725 100.813 30.4988V30.5397C100.831 30.9835 100.983 31.3223 101.264 31.5442C101.545 31.7661 101.821 31.8771 102.079 31.8771C102.337 31.8771 102.495 31.807 102.53 31.6727C102.542 31.6552 102.542 31.6318 102.542 31.6026C102.542 31.5033 102.465 31.4216 102.307 31.3573C102.143 31.1938 102.061 31.0244 102.061 30.8492C102.061 30.7207 102.108 30.5981 102.208 30.4696C102.43 30.1776 102.794 30.0316 103.303 30.0316C103.995 30.1484 104.346 30.5747 104.352 31.3106C104.352 32.0114 104.042 32.5838 103.421 33.0393C102.799 33.4949 101.915 33.7227 100.766 33.7227C99.8637 33.7227 99.0433 33.4832 98.3167 33.0101C97.2561 32.3035 96.7169 31.3223 96.6994 30.0725V30.0608C96.7873 28.811 97.3732 27.6896 98.4632 26.6968C99.5531 25.7039 101.334 25.0615 103.819 24.7695C104.171 24.7519 104.534 24.7403 104.915 24.7403C107.394 24.7403 109.779 25.2367 112.064 26.2295C114.349 27.2224 116.172 28.6416 117.537 30.4871C118.896 32.3327 119.582 34.5929 119.582 37.2677C119.582 40.3981 118.51 43.1139 116.359 45.4149C114.209 47.716 111.765 48.9542 109.023 49.1294H101.891V38.1087C102.424 37.8284 102.694 37.513 102.694 37.1626C102.694 36.8647 102.471 36.7129 102.02 36.7129C101.962 36.7129 101.897 36.7129 101.833 36.7246C101.54 36.7421 101.247 36.7538 100.959 36.7538C100.672 36.7538 100.391 36.7421 100.098 36.7246C100.028 36.7129 99.9633 36.7129 99.893 36.7129C99.4535 36.7129 99.2367 36.8647 99.2367 37.1626C99.2367 37.513 99.5062 37.8284 100.039 38.1087V49.5674C99.5062 49.8477 99.2367 50.1573 99.2367 50.496C99.2367 50.8347 99.518 51.0041 100.08 51.0041H109.099C112.404 51.0041 115.322 49.5966 117.853 46.7874C120.385 43.9782 121.645 40.7953 121.645 37.2502C121.645 34.149 120.871 31.5442 119.324 29.4417C117.777 27.3392 115.662 25.6981 112.978 24.5242C110.587 23.4788 108.103 22.9531 105.536 22.9531C105.214 22.9531 104.891 22.9648 104.575 22.9823C101.657 23.1283 99.3304 23.8409 97.5959 25.1199C95.8614 26.3989 94.9414 28.0984 94.8477 30.2068C94.918 32.2334 95.8087 33.6993 97.5315 34.5987C98.5452 35.1418 99.5941 35.4105 100.684 35.4105L100.678 35.4339Z" fill="#117139"/>
<path d="M135.013 33.4714C133.143 31.6317 130.225 30.5688 126.258 30.2884V24.3138C126.785 24.0335 127.043 23.7181 127.043 23.3677C127.043 23.0698 126.826 22.918 126.387 22.918C126.317 22.918 126.252 22.918 126.182 22.9296C125.901 22.9472 125.613 22.9589 125.32 22.9589C125.027 22.9589 124.752 22.9472 124.459 22.9296C124.389 22.918 124.324 22.918 124.254 22.918C123.814 22.918 123.598 23.0698 123.598 23.3677C123.598 23.7181 123.861 24.0335 124.383 24.3138V49.6432C123.855 49.9235 123.598 50.2331 123.598 50.5718C123.598 50.8697 123.814 51.0215 124.254 51.0215H126.358C130.401 50.6419 133.266 49.614 134.954 47.9378C137.064 45.8353 138.118 43.4992 138.118 40.9295C138.118 38.0327 137.081 35.5447 135.013 33.4714ZM133.595 46.6471C132.094 48.0605 129.645 48.8606 126.24 49.0475V44.7315H126.252V32.2274C129.551 32.3909 131.995 33.2261 133.589 34.7271C135.376 36.4324 136.272 38.4999 136.272 40.9236C136.272 43.0261 135.376 44.9359 133.589 46.653L133.595 46.6471Z" fill="#117139"/>
<path d="M145.133 50.6185C145.133 50.2798 144.869 49.9703 144.342 49.6899V24.3138C144.869 24.0335 145.133 23.7181 145.133 23.3677C145.133 23.0698 144.916 22.918 144.477 22.918C144.406 22.918 144.342 22.918 144.272 22.9296C143.99 22.9472 143.703 22.9589 143.41 22.9589C143.117 22.9589 142.842 22.9472 142.549 22.9296C142.479 22.918 142.414 22.918 142.344 22.918C141.904 22.918 141.688 23.0698 141.688 23.3677C141.688 23.7181 141.957 24.0335 142.49 24.3138V49.6899C141.957 49.9703 141.688 50.2798 141.688 50.6185C141.688 50.9164 141.904 51.0682 142.344 51.0682C142.414 51.0682 142.479 51.0682 142.549 51.0507C142.842 51.0215 143.129 51.0098 143.41 51.0098C143.692 51.0098 143.99 51.0215 144.272 51.0507C144.342 51.0624 144.406 51.0682 144.477 51.0682C144.916 51.0682 145.133 50.9164 145.133 50.6185Z" fill="#117139"/>
<path d="M147.504 50.5426C147.504 50.8638 147.744 51.0215 148.219 51.0215H173.445C173.92 51.0215 174.16 50.8638 174.16 50.5426C174.16 50.1747 173.891 49.8476 173.358 49.5673V24.2963C173.891 24.0159 174.16 23.7064 174.16 23.3677C174.16 23.0698 173.944 22.918 173.504 22.918C173.434 22.918 173.369 22.918 173.299 22.9296C173.018 22.9588 172.731 22.9705 172.438 22.9705C172.145 22.9705 171.869 22.953 171.576 22.9296C171.506 22.918 171.441 22.918 171.371 22.918C170.932 22.918 170.715 23.0698 170.715 23.3677C170.715 23.7064 170.978 24.0159 171.5 24.2963V49.5089H161.767V24.2963C162.294 24.0159 162.558 23.7064 162.558 23.3677C162.558 23.0698 162.341 22.918 161.902 22.918C161.831 22.918 161.767 22.918 161.696 22.9296C161.415 22.9588 161.128 22.9705 160.835 22.9705C160.542 22.9705 160.267 22.953 159.974 22.9296C159.903 22.918 159.839 22.918 159.769 22.918C159.329 22.918 159.112 23.0698 159.112 23.3677C159.112 23.7064 159.382 24.0159 159.915 24.2963V49.5089H150.153V24.2963C150.68 24.0159 150.938 23.7064 150.938 23.3677C150.938 23.0698 150.721 22.918 150.281 22.918C150.211 22.918 150.147 22.918 150.076 22.9296C149.795 22.9588 149.508 22.9705 149.215 22.9705C148.922 22.9705 148.647 22.953 148.354 22.9296C148.283 22.918 148.219 22.918 148.148 22.918C147.709 22.918 147.492 23.0698 147.492 23.3677C147.492 23.7064 147.762 24.0159 148.295 24.2963V49.5673C147.762 49.8476 147.492 50.1747 147.492 50.5426H147.504Z" fill="#117139"/>
<path d="M195.193 49.6831V24.307C195.726 24.0266 195.996 23.7113 195.996 23.3608C195.996 23.063 195.779 22.9111 195.339 22.9111C195.269 22.9111 195.205 22.9111 195.134 22.9228C194.841 22.9403 194.554 22.952 194.273 22.952C193.992 22.952 193.693 22.9403 193.411 22.9228C193.335 22.9111 193.265 22.9111 193.206 22.9111C192.767 22.9111 192.55 23.0513 192.55 23.3316C192.55 23.6587 192.784 23.9682 193.253 24.2486C192.456 26.17 190.646 27.7586 187.827 29.0201C184.217 30.632 181.838 32.5126 180.69 34.6618C180.502 35.0181 180.332 35.3743 180.18 35.7248L180.168 24.3128C180.696 24.0325 180.953 23.7171 180.953 23.3667C180.953 23.0688 180.737 22.917 180.297 22.917C180.227 22.917 180.162 22.917 180.092 22.9287C179.799 22.9462 179.512 22.9579 179.231 22.9579C178.949 22.9579 178.65 22.9462 178.369 22.9287C178.299 22.917 178.234 22.917 178.164 22.917C177.725 22.917 177.508 23.0688 177.508 23.3667C177.508 23.7171 177.772 24.0325 178.293 24.3128V49.6889C177.766 49.9693 177.508 50.2788 177.508 50.6175C177.508 50.9154 177.725 51.0673 178.164 51.0673C178.234 51.0673 178.299 51.0673 178.369 51.0497C178.65 51.0205 178.938 51.0088 179.231 51.0088C179.524 51.0088 179.799 51.0205 180.092 51.0497C180.162 51.0614 180.227 51.0673 180.297 51.0673C180.737 51.0673 180.953 50.9154 180.953 50.6175C180.953 50.2788 180.696 49.9693 180.18 49.6889V41.0803C180.18 39.3166 180.789 37.4769 182.008 35.5612C183.227 33.6456 185.706 31.8585 189.444 30.2057C190.886 29.5632 192.181 28.5938 193.341 27.2855V49.6948C192.814 49.9751 192.55 50.2846 192.55 50.6234C192.55 50.9212 192.767 51.0731 193.206 51.0731C193.277 51.0731 193.341 51.0731 193.411 51.0556C193.693 51.0264 193.98 51.0147 194.273 51.0147C194.566 51.0147 194.841 51.0264 195.134 51.0556C195.205 51.0672 195.269 51.0731 195.339 51.0731C195.779 51.0731 195.996 50.9212 195.996 50.6234C195.996 50.2846 195.726 49.9751 195.193 49.6948V49.6831Z" fill="#117139"/>
<path d="M50.206 27.4202C50.2705 27.4553 50.3291 27.4786 50.3935 27.502C50.4814 27.537 50.5635 27.5662 50.6924 27.6597C50.7451 27.6947 50.8037 27.7123 50.8623 27.7123C50.9209 27.7123 50.9795 27.6947 51.0323 27.6597C51.1612 27.5662 51.2374 27.537 51.3311 27.502C51.3956 27.4786 51.4542 27.4553 51.5186 27.4202C51.7823 27.2801 51.9816 27.0873 52.1281 26.8421C52.5851 27.1049 53.1242 27.1107 53.6165 27.0698C53.7044 27.064 53.7805 27.0173 53.8333 26.9472C53.886 26.8771 53.9036 26.7895 53.8802 26.7019C53.6692 25.8842 53.6633 25.2535 53.8626 24.8271C53.8626 24.8155 53.8743 24.8038 53.8802 24.7863C54.0325 24.4066 54.1087 24.0037 54.1087 23.6007C54.1087 21.9537 52.8664 20.5988 51.2725 20.4002C50.833 17.4275 49.6318 13.5787 46.5319 10.3432C46.614 9.69491 46.5261 9.15176 46.2389 8.72542C45.5064 7.63912 43.8715 7.70921 43.3793 7.75593C41.8499 6.75724 40.3556 6.03888 38.9141 5.55997C38.8848 5.29132 38.8145 5.0285 38.6973 4.77737C38.4688 4.29847 37.9648 3.69691 36.8573 3.56843C35.2459 3.3757 34.3669 4.12326 34.0036 4.71897C32.398 4.69561 30.9037 4.92338 29.5618 5.28548C29.4974 5.22123 29.4329 5.16283 29.3743 5.11611C28.4543 4.37439 27.0714 4.34519 26.1631 5.04018C24.8915 6.01552 24.6044 7.02589 24.5458 7.45807C23.2859 8.22899 22.53 8.89479 22.4245 8.98823C22.0085 9.36201 21.4459 9.87012 20.8248 10.5126C19.8755 10.2264 18.7856 10.5184 18.2172 11.2718C17.3675 12.3814 17.3558 13.9116 17.4261 14.7234C17.0569 15.3834 16.717 16.1017 16.4182 16.8902C15.3927 15.4943 14.3555 14.2328 13.3359 12.9947C10.5525 9.61899 7.92142 6.42434 5.80601 0.841004L5.48958 0L5.07353 0.794282C-3.00133 16.166 -1.46605 27.9517 9.88446 37.8685C18.1996 45.1339 18.1234 52.3116 17.9007 54.3382C17.8597 54.7062 18.0414 54.8288 18.1996 54.8697L18.5453 54.9456L18.6742 54.6185C18.6742 54.6185 18.6859 54.5893 18.6918 54.5777L18.727 54.5893C18.7797 54.4141 18.8383 54.2448 18.891 54.0696C19.0082 53.7717 19.1254 53.4738 19.2543 53.1585C21.8796 46.6115 25.8408 36.7122 21.3112 25.6448C20.5904 23.8869 19.8345 22.3509 19.0551 20.9667C19.102 21.0134 19.1606 21.0426 19.2309 21.0485C19.7231 21.0893 20.2622 21.0835 20.7193 20.8207C20.8658 21.066 21.0709 21.2587 21.3287 21.3989C21.3932 21.4339 21.4518 21.4573 21.5162 21.4806C21.6041 21.5157 21.6862 21.5449 21.8151 21.6383C21.8678 21.6734 21.9264 21.6909 21.985 21.6909C22.0436 21.6909 22.1022 21.6734 22.155 21.6383C22.2839 21.5449 22.3601 21.5157 22.4538 21.4806C22.5183 21.4573 22.5769 21.4339 22.6413 21.3989C22.905 21.2587 23.1043 21.066 23.2508 20.8207C23.7078 21.0835 24.2469 21.0893 24.7392 21.0485C24.8271 21.0426 24.9032 20.9959 24.956 20.9258C25.0087 20.8557 25.0263 20.7681 25.0029 20.6805C24.7919 19.8629 24.786 19.2321 24.9853 18.8058C24.9853 18.7941 24.997 18.7824 25.0029 18.7649C25.1552 18.3853 25.2314 17.9823 25.2314 17.5793C25.2314 15.9616 24.0243 14.6183 22.4655 14.3905C22.9167 12.3289 22.1491 11.3244 21.5807 10.8922C22.1022 10.3665 22.5886 9.93436 22.9753 9.58394C23.1687 9.40873 25.5595 7.31206 29.263 6.20241C29.6614 6.89156 29.5911 7.90778 29.0461 9.11088C27.4112 9.26857 26.1279 10.6527 26.1279 12.323C26.1279 12.7319 26.2041 13.129 26.3565 13.5086C26.3565 13.5203 26.3682 13.5378 26.3741 13.5495C26.5733 13.9759 26.5674 14.6124 26.3565 15.4243C26.333 15.506 26.3565 15.5995 26.4034 15.6695C26.4561 15.7396 26.5323 15.7864 26.6202 15.7922C27.1065 15.8272 27.6515 15.8272 28.1086 15.5644C28.2551 15.8097 28.4602 16.0024 28.718 16.1426C28.7824 16.1777 28.8411 16.201 28.9055 16.2244C28.9934 16.2594 29.0754 16.2886 29.2044 16.3821C29.2571 16.4171 29.3157 16.4346 29.3743 16.4346C29.4329 16.4346 29.4915 16.4171 29.5442 16.3821C29.6731 16.2886 29.7493 16.2594 29.8431 16.2244C29.9075 16.201 29.9661 16.1777 30.0306 16.1426C30.2943 16.0024 30.4935 15.8097 30.64 15.5644C31.0971 15.8272 31.6362 15.8331 32.1284 15.7922C32.2163 15.7864 32.2925 15.7396 32.3452 15.6695C32.398 15.5995 32.4156 15.5119 32.3921 15.4243C32.1812 14.6066 32.1753 13.9759 32.3745 13.5495C32.3745 13.5378 32.3863 13.5262 32.3921 13.5086C32.5445 13.129 32.6206 12.726 32.6206 12.323C32.6206 10.7286 31.4545 9.40289 29.9251 9.14592C30.5287 7.66832 30.3939 6.64627 30.0775 5.98631C32.3804 5.4198 35.1228 5.27964 38.123 6.16152C38.082 6.52362 37.9648 6.87404 37.8066 7.14269C36.1659 7.29454 34.8708 8.6787 34.8708 10.3549C34.8708 10.7637 34.947 11.1608 35.0994 11.5404C35.0994 11.5521 35.1052 11.5696 35.1169 11.5813C35.3162 12.0077 35.3103 12.6384 35.0994 13.4561C35.0759 13.5378 35.0994 13.6313 35.1462 13.7014C35.199 13.7714 35.2752 13.8182 35.3631 13.824C35.8494 13.8649 36.3944 13.859 36.8515 13.5962C36.9979 13.8415 37.203 14.0343 37.4609 14.1744C37.5253 14.2095 37.5839 14.2328 37.6484 14.2562C37.7363 14.2912 37.8183 14.3204 37.9472 14.4139C38 14.4489 38.0586 14.4664 38.1172 14.4664C38.1758 14.4664 38.2344 14.4489 38.2871 14.4139C38.416 14.3204 38.4922 14.2912 38.586 14.2562C38.6504 14.2328 38.709 14.2095 38.7735 14.1744C39.0372 14.0343 39.2364 13.8415 39.3829 13.5962C39.84 13.859 40.3791 13.8649 40.8713 13.824C40.9592 13.8182 41.0354 13.7714 41.0881 13.7014C41.1409 13.6313 41.1584 13.5437 41.135 13.4561C40.924 12.6384 40.9182 12.0077 41.1174 11.5813C41.1233 11.5696 41.1291 11.5521 41.135 11.5404C41.2874 11.1608 41.3635 10.7578 41.3635 10.3549C41.3635 8.7663 40.2091 7.44639 38.6973 7.17774C38.7969 6.94412 38.8731 6.68131 38.92 6.40682C40.3967 6.92076 41.9261 7.68 43.4907 8.77214C44.3228 9.35033 45.0552 9.98108 45.7115 10.6352C45.5768 11.1959 45.2662 11.9317 44.6978 12.8896C43.0512 13.0414 41.762 14.4256 41.762 16.1017C41.762 16.5105 41.8382 16.9077 41.9905 17.2873C41.9905 17.299 42.0023 17.3165 42.0081 17.3282C42.2074 17.7545 42.2015 18.3853 41.9905 19.2029C41.9671 19.2847 41.9905 19.3781 42.0374 19.4482C42.0902 19.5183 42.1663 19.565 42.2542 19.5709C42.7406 19.6059 43.2856 19.6059 43.7426 19.3431C43.8891 19.5884 44.0942 19.7811 44.3521 19.9213C44.4165 19.9563 44.4751 19.9797 44.5396 20.0031C44.6275 20.0381 44.7095 20.0673 44.8384 20.1607C44.8912 20.1958 44.9498 20.2133 45.0084 20.2133C45.067 20.2133 45.1314 20.1958 45.1783 20.1607C45.3072 20.0673 45.3834 20.0381 45.4771 20.0031C45.5416 19.9797 45.6002 19.9563 45.6647 19.9213C45.9283 19.7811 46.1276 19.5884 46.2741 19.3431C46.7311 19.6059 47.2703 19.6117 47.7625 19.5709C47.8504 19.565 47.9266 19.5183 47.9793 19.4482C48.032 19.3781 48.0496 19.2905 48.0262 19.2029C47.8152 18.3853 47.8094 17.7545 48.0086 17.3282C48.0086 17.3165 48.0203 17.3048 48.0262 17.2873C48.1785 16.9077 48.2547 16.5047 48.2547 16.1017C48.2547 14.5248 47.112 13.2108 45.6119 12.9304C45.9401 12.3406 46.192 11.7974 46.362 11.3068C49.0106 14.2679 50.0947 17.702 50.5107 20.4119C48.9169 20.6163 47.6863 21.9712 47.6863 23.6124C47.6863 24.0212 47.7625 24.4183 47.9148 24.7979C47.9148 24.8096 47.9266 24.8271 47.9324 24.8388C48.1316 25.2652 48.1258 25.9018 47.9148 26.7136C47.8914 26.7953 47.9148 26.8888 47.9617 26.9589C48.0145 27.0289 48.0906 27.0757 48.1785 27.0815C48.6649 27.1165 49.2099 27.1165 49.6669 26.8537C49.8134 27.099 50.0185 27.2918 50.2764 27.4319L50.206 27.4202ZM31.9995 12.323C31.9995 12.6618 31.935 13.0005 31.8061 13.3159C31.8061 13.3159 31.8061 13.3276 31.8003 13.3334C31.5835 13.8182 31.56 14.4431 31.7182 15.2198C31.3373 15.2198 30.9682 15.1556 30.7103 14.8928C30.64 14.8227 30.5345 14.7935 30.4291 14.8169C30.3295 14.8402 30.2474 14.9161 30.2181 15.0154C30.1302 15.2899 29.972 15.4885 29.7317 15.617C29.6907 15.6403 29.6497 15.652 29.6087 15.6695C29.5384 15.6987 29.4563 15.7279 29.3567 15.7864C29.2571 15.7279 29.1751 15.6987 29.1047 15.6695C29.0637 15.652 29.0227 15.6403 28.9817 15.617C28.7414 15.4885 28.5774 15.2899 28.4953 15.0154C28.466 14.9161 28.384 14.8402 28.2844 14.8169C28.2609 14.8169 28.2375 14.811 28.214 14.811C28.1379 14.811 28.0617 14.8402 28.009 14.8986C27.7453 15.1614 27.3702 15.2198 27.0011 15.2257C27.1593 14.4431 27.13 13.824 26.919 13.3393C26.919 13.3393 26.919 13.3276 26.9132 13.3217C26.7842 13.0005 26.7198 12.6676 26.7198 12.3289C26.7198 10.8747 27.9093 9.68907 29.3684 9.68907C30.8275 9.68907 32.0171 10.8747 32.0171 12.3289L31.9995 12.323ZM40.7307 10.349C40.7307 10.6878 40.6662 11.0265 40.5373 11.3419C40.5373 11.3477 40.5373 11.3536 40.5314 11.3594C40.3205 11.8441 40.2912 12.4691 40.4494 13.2458H40.4377C40.0568 13.2458 39.6993 13.1816 39.4415 12.9188C39.3712 12.8487 39.2657 12.8195 39.1602 12.8428C39.0606 12.8662 38.9786 12.9421 38.9493 13.0414C38.8614 13.3159 38.7032 13.5145 38.4629 13.643C38.4219 13.6663 38.3809 13.678 38.3399 13.6955C38.2695 13.7247 38.1875 13.7539 38.0879 13.8123C37.9883 13.7539 37.9062 13.7247 37.8359 13.6955C37.7949 13.678 37.7539 13.6663 37.7129 13.643C37.4726 13.5145 37.3085 13.3159 37.2265 13.0414C37.1972 12.9421 37.1151 12.8662 37.0155 12.8428C36.9921 12.8428 36.9687 12.837 36.9452 12.837C36.869 12.837 36.7929 12.8662 36.7401 12.9246C36.4764 13.1874 36.119 13.2575 35.7322 13.2517C35.8904 12.4691 35.8611 11.85 35.6502 11.3652C35.6502 11.3594 35.6502 11.3536 35.6443 11.3477C35.5154 11.0323 35.451 10.6936 35.451 10.3549C35.451 8.90063 36.6405 7.71505 38.0996 7.71505C39.5587 7.71505 40.7482 8.90063 40.7482 10.3549L40.7307 10.349ZM45.5592 9.18096C45.6236 9.28025 45.6822 9.40873 45.7174 9.56642C45.3599 9.23936 44.9791 8.92983 44.5806 8.62029C44.9732 8.70206 45.3482 8.86559 45.5592 9.18096ZM36.7518 4.36271C37.3495 4.43279 37.7539 4.68977 37.959 5.12195C37.9883 5.18035 38.0058 5.23876 38.0234 5.29716C36.9862 5.01098 35.9783 4.84161 35.0115 4.76569C35.3279 4.50288 35.8611 4.25758 36.7577 4.36271H36.7518ZM26.6495 5.67678C27.171 5.27964 27.9855 5.25044 28.5949 5.57165C27.4581 5.94543 26.4502 6.39514 25.5947 6.85068C25.7822 6.51194 26.0986 6.09728 26.6495 5.67678ZM18.85 11.7507C19.1196 11.3944 19.5942 11.2017 20.0806 11.2017C19.477 11.8033 18.8442 12.5275 18.2465 13.3918C18.3168 12.8312 18.4867 12.2296 18.8559 11.7507H18.85ZM10.4177 37.267C-0.417138 27.7999 -2.02859 16.5631 5.36653 1.9565C7.46435 7.15438 10.0134 10.2439 12.6972 13.5028C13.8223 14.8694 14.9649 16.2536 16.0842 17.8246C15.8381 18.6131 15.6388 19.4541 15.4982 20.3593C14.1856 28.8161 18.8735 33.4124 19.6059 40.374C20.1685 45.7121 19.0024 48.8016 18.4223 49.958C17.7367 46.5823 15.7443 41.9276 10.406 37.2612L10.4177 37.267ZM21.2467 45.1047C21.5748 41.5246 21.024 37.0976 18.4223 30.8135C16.4416 26.0244 16.2541 22.1464 16.9221 19.0394C18.1937 20.9609 19.4243 23.1743 20.5552 25.9485C23.4383 32.9919 22.7703 39.5856 21.2408 45.1047H21.2467ZM24.6278 17.5852C24.6278 17.9239 24.5634 18.2626 24.4345 18.578C24.4345 18.578 24.4344 18.5897 24.4286 18.5955C24.2176 19.0803 24.1883 19.7052 24.3466 20.482C23.9598 20.4936 23.5965 20.4177 23.3387 20.1549C23.2683 20.0848 23.1629 20.0556 23.0574 20.079C22.9578 20.1023 22.8757 20.1783 22.8464 20.2775C22.7585 20.552 22.6003 20.7506 22.3601 20.8791C22.319 20.9025 22.278 20.9141 22.237 20.9317C22.1667 20.9609 22.0847 20.9901 21.985 21.0485C21.8854 20.9901 21.8034 20.9609 21.7331 20.9317C21.692 20.9141 21.651 20.9025 21.61 20.8791C21.3698 20.7506 21.2057 20.552 21.1236 20.2775C21.0943 20.1783 21.0123 20.1023 20.9127 20.079C20.8892 20.079 20.8658 20.0731 20.8424 20.0731C20.7662 20.0731 20.69 20.1023 20.6314 20.1607C20.3736 20.4177 20.0103 20.4878 19.6352 20.4878H19.6235C19.7817 19.7052 19.7524 19.0861 19.5415 18.6014C19.5415 18.6014 19.5415 18.5897 19.5356 18.5839C19.4067 18.2626 19.3422 17.9297 19.3422 17.591C19.3422 16.1368 20.5318 14.9512 21.9909 14.9512C23.45 14.9512 24.6395 16.1368 24.6395 17.591L24.6278 17.5852ZM21.6217 14.373C19.9986 14.5482 18.7328 15.9207 18.7328 17.5793C18.7328 17.9881 18.809 18.3853 18.9614 18.7649C18.9614 18.7766 18.9731 18.7941 18.9789 18.8058C19.1782 19.2321 19.1723 19.8629 18.9614 20.6805C18.9496 20.7214 18.9496 20.7565 18.9614 20.7973C18.3812 19.787 17.7952 18.8584 17.1975 17.994C18.0355 15.1264 19.5942 12.9947 21.0006 11.4762C21.7389 11.9609 21.9675 12.9947 21.6276 14.373H21.6217ZM47.6101 16.1017C47.6101 16.4405 47.5457 16.7792 47.4167 17.0946C47.4167 17.0946 47.4168 17.1063 47.4109 17.1121C47.1941 17.5968 47.1706 18.2218 47.3288 18.9985H47.3171C46.9362 18.9985 46.5788 18.9343 46.321 18.6715C46.2506 18.6014 46.1452 18.5722 46.0397 18.5955C45.9401 18.6189 45.858 18.6948 45.8287 18.7941C45.7408 19.0686 45.5826 19.2672 45.3424 19.3957C45.3013 19.419 45.2603 19.4307 45.2193 19.4482C45.149 19.4774 45.067 19.5066 44.9673 19.565C44.8677 19.5066 44.7857 19.4774 44.7154 19.4482C44.6743 19.4307 44.6333 19.419 44.5923 19.3957C44.3521 19.2672 44.188 19.0686 44.1059 18.7941C44.0766 18.6948 43.9946 18.6189 43.895 18.5955C43.8715 18.5955 43.8481 18.5897 43.8247 18.5897C43.7485 18.5897 43.6723 18.6189 43.6137 18.6773C43.35 18.9401 42.9926 18.9927 42.6058 19.0044C42.764 18.2218 42.7347 17.6027 42.5238 17.1179C42.5238 17.1179 42.5238 17.1063 42.5179 17.1004C42.389 16.7792 42.3245 16.4463 42.3245 16.1076C42.3245 14.6533 43.5141 13.4677 44.9732 13.4677C46.4323 13.4677 47.6218 14.6533 47.6218 16.1076L47.6101 16.1017ZM48.495 26.5033C48.6532 25.7207 48.6239 25.1016 48.4129 24.6169C48.4129 24.6169 48.4129 24.6052 48.4071 24.5994C48.2781 24.2782 48.2137 23.9453 48.2137 23.6065C48.2137 22.1523 49.4032 20.9667 50.8623 20.9667C52.3214 20.9667 53.511 22.1523 53.511 23.6065C53.511 23.9453 53.4465 24.284 53.3176 24.5994C53.3176 24.5994 53.3176 24.6111 53.3118 24.6169C53.0949 25.1016 53.0715 25.7266 53.2297 26.5033C52.8547 26.5092 52.4797 26.4391 52.2218 26.1763C52.1515 26.1062 52.046 26.077 51.9405 26.1003C51.8409 26.1237 51.7589 26.1996 51.7296 26.2989C51.6417 26.5734 51.4835 26.772 51.2432 26.9005C51.2022 26.9238 51.1612 26.9355 51.1202 26.953C51.0499 26.9822 50.9678 27.0114 50.8682 27.0698C50.7686 27.0114 50.6865 26.9822 50.6162 26.953C50.5752 26.9355 50.5342 26.9238 50.4932 26.9005C50.2529 26.772 50.0888 26.5734 50.0068 26.2989C49.9775 26.1996 49.8955 26.1237 49.7958 26.1003C49.7724 26.1003 49.749 26.0945 49.7255 26.0945C49.6493 26.0945 49.5732 26.1237 49.5204 26.1821C49.2567 26.4449 48.9051 26.515 48.5125 26.5092L48.495 26.5033Z" fill="#117139"/>
</svg>
