<svg width="36" height="38" viewBox="0 0 36 38" fill="none" xmlns="http://www.w3.org/2000/svg">
<rect x="1" width="35" height="35" rx="11" fill="black" fill-opacity="0.08"/>
<g opacity="0.25" filter="url(#filter0_f_4_2142)">
<rect x="6.27295" y="17.5" width="23.8428" height="14.9017" rx="7.45087" fill="url(#paint0_linear_4_2142)"/>
</g>
<rect x="5.54999" y="4.55005" width="25.8297" height="25.8297" rx="7" fill="url(#paint1_linear_4_2142)"/>
<g filter="url(#filter1_i_4_2142)">
<path d="M12.3583 16.6478C12.3583 16.6478 18.5502 13.9018 20.6976 12.9348C21.5208 12.5481 24.3125 11.3104 24.3125 11.3104C24.3125 11.3104 25.601 10.7689 25.4936 12.0839C25.4578 12.6254 25.1715 14.5205 24.8852 16.5704C24.4557 19.4712 23.9904 22.6427 23.9904 22.6427C23.9904 22.6427 23.9188 23.5323 23.3104 23.687C22.7019 23.8417 21.6998 23.1455 21.5208 22.9908C21.3776 22.8748 18.8365 21.1343 17.9059 20.2834C17.6554 20.0514 17.3691 19.5873 17.9417 19.0458C19.2302 17.7694 20.7692 16.1837 21.6998 15.1781C22.1293 14.7139 22.5587 13.631 20.7692 14.946C18.2281 16.8412 15.7227 18.6203 15.7227 18.6203C15.7227 18.6203 15.15 19.0071 14.0763 18.659C13.0025 18.3109 11.7498 17.8468 11.7498 17.8468C11.7498 17.8468 10.8909 17.2666 12.3583 16.6478Z" fill="white"/>
</g>
<defs>
<filter id="filter0_f_4_2142" x="0.812949" y="12.04" width="34.7628" height="25.8219" filterUnits="userSpaceOnUse" color-interpolation-filters="sRGB">
<feFlood flood-opacity="0" result="BackgroundImageFix"/>
<feBlend mode="normal" in="SourceGraphic" in2="BackgroundImageFix" result="shape"/>
<feGaussianBlur stdDeviation="2.73" result="effect1_foregroundBlur_4_2142"/>
</filter>
<filter id="filter1_i_4_2142" x="10.45" y="9.44995" width="15.75" height="16.25" filterUnits="userSpaceOnUse" color-interpolation-filters="sRGB">
<feFlood flood-opacity="0" result="BackgroundImageFix"/>
<feBlend mode="normal" in="SourceGraphic" in2="BackgroundImageFix" result="shape"/>
<feColorMatrix in="SourceAlpha" type="matrix" values="0 0 0 0 0 0 0 0 0 0 0 0 0 0 0 0 0 0 127 0" result="hardAlpha"/>
<feOffset dy="0.5"/>
<feGaussianBlur stdDeviation="1.25"/>
<feComposite in2="hardAlpha" operator="arithmetic" k2="-1" k3="1"/>
<feColorMatrix type="matrix" values="0 0 0 0 0 0 0 0 0 0 0 0 0 0 0 0 0 0 0.1 0"/>
<feBlend mode="normal" in2="shape" result="effect1_innerShadow_4_2142"/>
</filter>
<linearGradient id="paint0_linear_4_2142" x1="8.37295" y1="18.6106" x2="19.1665" y2="37.2843" gradientUnits="userSpaceOnUse">
<stop stop-color="#0088CC"/>
<stop offset="1" stop-color="#0083C5"/>
</linearGradient>
<linearGradient id="paint1_linear_4_2142" x1="7.82499" y1="6.47505" x2="29.35" y2="29.75" gradientUnits="userSpaceOnUse">
<stop stop-color="#0088CC"/>
<stop offset="1" stop-color="#0083C5"/>
</linearGradient>
</defs>
</svg>
