<svg width="19" height="22" viewBox="0 0 19 22" fill="none" xmlns="http://www.w3.org/2000/svg">
<path fill-rule="evenodd" clip-rule="evenodd" d="M8.25002 15.25H4.6032C2.31814 15.25 0.61199 13.9485 0.131992 12.2685C-0.107994 11.4286 -0.0284292 10.5166 0.435363 9.69991C0.811074 9.03835 1.41697 8.47627 2.23682 8.06139C1.90786 6.24818 2.29539 4.65592 3.1379 3.40835C4.06648 2.03335 5.51819 1.11948 7.06198 0.768622C8.60676 0.417537 10.2932 0.620257 11.6774 1.54907C12.9459 2.4003 13.8875 3.81205 14.2539 5.78788C16.8136 6.09304 18.2282 8.19181 18.2282 10.3125C18.2282 11.4574 17.8215 12.628 16.9651 13.5496C16.1035 14.4768 14.8274 15.1089 13.1655 15.2474C13.1448 15.2491 13.124 15.25 13.1032 15.25H9.75002V18.9594L12.2372 19.7885C12.6301 19.9194 12.8425 20.3442 12.7115 20.7371C12.5805 21.1301 12.1558 21.3425 11.7628 21.2115L9.00002 20.2905L6.23719 21.2115C5.84423 21.3425 5.41949 21.1301 5.28851 20.7371C5.15752 20.3442 5.36989 19.9194 5.76285 19.7885L8.25002 18.9594V15.25ZM3.82787 8.30673C3.38137 6.63233 3.69504 5.26357 4.38099 4.24784C5.07741 3.2166 6.1882 2.50546 7.39441 2.23132C8.59964 1.95741 9.85065 2.12969 10.8415 2.79462C11.8182 3.45002 12.6296 4.64302 12.8583 6.5876C12.9028 6.96531 13.2229 7.24997 13.6032 7.24997C15.6336 7.24997 16.7282 8.73153 16.7282 10.3125C16.7282 11.1051 16.4474 11.9032 15.8663 12.5285C15.2948 13.1435 14.3927 13.6336 13.0711 13.75H10.0263C10.0327 13.7369 10.0392 13.7237 10.0458 13.7104C10.3282 13.1457 10.7 12.75 11.25 12.75C11.6642 12.75 12 12.4142 12 12C12 11.5858 11.6642 11.25 11.25 11.25C10.1083 11.25 9.39861 11.9346 8.98118 12.5603C8.84943 12.4387 8.71067 12.3264 8.57418 12.2243C8.04094 11.8256 7.43101 11.5019 7.08543 11.3292C6.71495 11.1439 6.26444 11.2941 6.0792 11.6646C5.89396 12.035 6.04413 12.4856 6.41461 12.6708C6.73569 12.8313 7.25077 13.1077 7.67586 13.4256C7.82887 13.54 7.95609 13.6495 8.05394 13.75H4.60319C2.88815 13.75 1.84427 12.8014 1.57428 11.8564C1.43927 11.3839 1.48472 10.8896 1.7397 10.4407C1.99585 9.98962 2.49677 9.52838 3.36653 9.20222C3.72772 9.06678 3.92726 8.67945 3.82787 8.30673Z" fill="#999E98"/>
</svg>
