<svg width="36" height="38" viewBox="0 0 36 38" fill="none" xmlns="http://www.w3.org/2000/svg">
<rect x="1" width="35" height="35" rx="11" fill="black" fill-opacity="0.08"/>
<g opacity="0.25" filter="url(#filter0_f_4_2140)">
<rect x="6.27292" y="17.5" width="23.8428" height="14.9017" rx="7.45087" fill="url(#paint0_linear_4_2140)"/>
</g>
<rect x="5.54999" y="4.55005" width="25.8297" height="25.8297" rx="7" fill="url(#paint1_linear_4_2140)"/>
<g filter="url(#filter1_i_4_2140)">
<path fill-rule="evenodd" clip-rule="evenodd" d="M25.1787 14.5281C25.2761 14.2237 25.1787 14 24.7156 14H23.184C22.7945 14 22.615 14.1932 22.5176 14.4063C22.5176 14.4063 21.7387 16.1872 20.6354 17.344C20.2784 17.6789 20.1161 17.7855 19.9214 17.7855C19.8241 17.7855 19.6831 17.6789 19.6831 17.3745V14.5281C19.6831 14.1628 19.5701 14 19.2455 14H16.8387C16.5954 14 16.449 14.1696 16.449 14.3302C16.449 14.6766 17.0007 14.7564 17.0575 15.7306V17.8464C17.0575 18.3102 16.9682 18.3943 16.7735 18.3943C16.2543 18.3943 14.9913 16.6055 14.2422 14.5586C14.0954 14.1607 13.9482 14 13.5567 14H12.0251C11.5875 14 11.5 14.1932 11.5 14.4063C11.5 14.7869 12.0192 16.6743 13.9177 19.1706C15.1833 20.8754 16.9665 21.7995 18.5891 21.7995C19.5627 21.7995 19.6832 21.5942 19.6832 21.2407V19.9522C19.6832 19.5417 19.7754 19.4598 20.0837 19.4598C20.3108 19.4598 20.7003 19.5664 21.609 20.3883C22.6474 21.3625 22.8186 21.7995 23.4028 21.7995H24.9344C25.372 21.7995 25.5908 21.5942 25.4646 21.1892C25.3264 20.7855 24.8306 20.1998 24.1727 19.5055C23.8157 19.1097 23.2803 18.6835 23.118 18.4704C22.8908 18.1965 22.9557 18.0747 23.118 17.8311C23.118 17.8311 24.984 15.3653 25.1787 14.5281Z" fill="white"/>
</g>
<defs>
<filter id="filter0_f_4_2140" x="0.812919" y="12.04" width="34.7628" height="25.8219" filterUnits="userSpaceOnUse" color-interpolation-filters="sRGB">
<feFlood flood-opacity="0" result="BackgroundImageFix"/>
<feBlend mode="normal" in="SourceGraphic" in2="BackgroundImageFix" result="shape"/>
<feGaussianBlur stdDeviation="2.73" result="effect1_foregroundBlur_4_2140"/>
</filter>
<filter id="filter1_i_4_2140" x="10.45" y="9.44995" width="15.75" height="16.25" filterUnits="userSpaceOnUse" color-interpolation-filters="sRGB">
<feFlood flood-opacity="0" result="BackgroundImageFix"/>
<feBlend mode="normal" in="SourceGraphic" in2="BackgroundImageFix" result="shape"/>
<feColorMatrix in="SourceAlpha" type="matrix" values="0 0 0 0 0 0 0 0 0 0 0 0 0 0 0 0 0 0 127 0" result="hardAlpha"/>
<feOffset dy="0.5"/>
<feGaussianBlur stdDeviation="1.25"/>
<feComposite in2="hardAlpha" operator="arithmetic" k2="-1" k3="1"/>
<feColorMatrix type="matrix" values="0 0 0 0 0 0 0 0 0 0 0 0 0 0 0 0 0 0 0.1 0"/>
<feBlend mode="normal" in2="shape" result="effect1_innerShadow_4_2140"/>
</filter>
<linearGradient id="paint0_linear_4_2140" x1="19.8422" y1="32.8462" x2="14.9822" y2="15.7165" gradientUnits="userSpaceOnUse">
<stop offset="0.0729167" stop-color="#1568C8"/>
<stop offset="0.927083" stop-color="#3F98FF"/>
</linearGradient>
<linearGradient id="paint1_linear_4_2140" x1="20.25" y1="31.15" x2="8.17499" y2="4.55005" gradientUnits="userSpaceOnUse">
<stop offset="0.0729167" stop-color="#1568C8"/>
<stop offset="0.927083" stop-color="#3F98FF"/>
</linearGradient>
</defs>
</svg>
