<svg width="36" height="38" viewBox="0 0 36 38" fill="none" xmlns="http://www.w3.org/2000/svg">
<rect x="1" width="35" height="35" rx="11" fill="black" fill-opacity="0.08"/>
<g opacity="0.25" filter="url(#filter0_f_4_2141)">
<rect x="6.27292" y="17.5" width="23.8428" height="14.9017" rx="7.45087" fill="url(#paint0_linear_4_2141)"/>
</g>
<rect x="5.54999" y="4.55005" width="25.8297" height="25.8297" rx="7" fill="url(#paint1_linear_4_2141)"/>
<g filter="url(#filter1_i_4_2141)">
<path d="M25.2082 14.1341C25.0479 13.5312 24.5735 13.0556 23.9699 12.8926C22.8786 12.6001 18.5 12.6001 18.5 12.6001C18.5 12.6001 14.1236 12.6001 13.0301 12.8926C12.4287 13.0534 11.9543 13.529 11.7918 14.1341C11.5 15.2282 11.5 17.5124 11.5 17.5124C11.5 17.5124 11.5 19.7966 11.7918 20.8907C11.9521 21.4936 12.4265 21.9692 13.0301 22.1322C14.1236 22.4247 18.5 22.4247 18.5 22.4247C18.5 22.4247 22.8786 22.4247 23.9699 22.1322C24.5713 21.9714 25.0457 21.4958 25.2082 20.8907C25.5 19.7966 25.5 17.5124 25.5 17.5124C25.5 17.5124 25.5 15.2282 25.2082 14.1341Z" fill="white"/>
<path d="M17.1013 19.618L20.7383 17.5124L17.1013 15.4068V19.618Z" fill="#FF0000"/>
</g>
<defs>
<filter id="filter0_f_4_2141" x="0.812919" y="12.04" width="34.7628" height="25.8219" filterUnits="userSpaceOnUse" color-interpolation-filters="sRGB">
<feFlood flood-opacity="0" result="BackgroundImageFix"/>
<feBlend mode="normal" in="SourceGraphic" in2="BackgroundImageFix" result="shape"/>
<feGaussianBlur stdDeviation="2.73" result="effect1_foregroundBlur_4_2141"/>
</filter>
<filter id="filter1_i_4_2141" x="10.45" y="9.80005" width="15.75" height="16.25" filterUnits="userSpaceOnUse" color-interpolation-filters="sRGB">
<feFlood flood-opacity="0" result="BackgroundImageFix"/>
<feBlend mode="normal" in="SourceGraphic" in2="BackgroundImageFix" result="shape"/>
<feColorMatrix in="SourceAlpha" type="matrix" values="0 0 0 0 0 0 0 0 0 0 0 0 0 0 0 0 0 0 127 0" result="hardAlpha"/>
<feOffset dy="0.5"/>
<feGaussianBlur stdDeviation="1.25"/>
<feComposite in2="hardAlpha" operator="arithmetic" k2="-1" k3="1"/>
<feColorMatrix type="matrix" values="0 0 0 0 0 0 0 0 0 0 0 0 0 0 0 0 0 0 0.1 0"/>
<feBlend mode="normal" in2="shape" result="effect1_innerShadow_4_2141"/>
</filter>
<linearGradient id="paint0_linear_4_2141" x1="19.8422" y1="32.8462" x2="14.9822" y2="15.7165" gradientUnits="userSpaceOnUse">
<stop stop-color="#DB0505"/>
<stop offset="1" stop-color="#FF0000"/>
</linearGradient>
<linearGradient id="paint1_linear_4_2141" x1="20.25" y1="31.15" x2="8.17499" y2="4.55005" gradientUnits="userSpaceOnUse">
<stop stop-color="#DB0505"/>
<stop offset="1" stop-color="#FF0000"/>
</linearGradient>
</defs>
</svg>
